<svg xmlns="http://www.w3.org/2000/svg" viewBox="0 0 2589.93 441.93"><defs><style>.cls-1{fill:#fff;}</style></defs><g id="Layer_2" data-name="Layer 2"><g id="Layer_1-2" data-name="Layer 1"><path d="M464.39,175.81c-5-7.36-15.19-11.3-23.26-6.1a19.11,19.11,0,0,0-6.76,7.8q-4.94-.09-9.87-.23c-8.89-.26-17.4,8-17,17,.43,9.43,7.47,16.73,17,17,10.14.29,21.94,1.85,31.11-3.42C466.41,201.65,471.77,186.72,464.39,175.81Z"/><path d="M1186.2,363.57H1046.28l85.53-237.28h396.07L1508.32,163c-1.49,2.8-3,5.67-4.38,8.45-3.36,6.6-6.84,13.41-11.06,20.12-10.71,17-21.56,29.37-34.12,38.76a95.15,95.15,0,0,1-37.23,16.49l86.63,86.74-18.33,30H1322.54l-74.9-75-16.05,40.68,27.29,34-17.2,16.83-16,15.63Z"/><path d="M1310.72,387.17h194l13.73-22.46.78-1.28,20.52-33.57L1512,302l-46.16-46.2q4-2.49,7.93-5.43c15.1-11.29,27.91-25.74,40.32-45.48,4.81-7.65,8.54-15,12.16-22,1.43-2.81,2.79-5.46,4.18-8.08l39.12-73.49H1114.25l-11.91,33-59.75,165.74-7.76,21.55-24.14,66.95h166.62l10.25,8.33,5.07,4.13,34.62,28.15,31.9-31.21.34-.34.67-.65,30.54-29.87,6.82,6.83Zm-65-135.9h-10.24c-10.8,27.4-21.68,55-32.47,82.33,7.57,9.43,14.88,18.53,22.18,27.64l-1,1c-9.74-7.91-19.47-15.82-29.1-23.66H1081.86q33.75-93.6,67.51-187.28h336.88c-5.07,9.52-9.25,18.61-14.53,27-7.6,12.09-16.36,23.39-27.93,32-14.57,10.89-31.57,13.81-49.24,14.77-8.73.48-17.4,1.95-27,3.08l109,109.16c-.26.42-.52.84-.77,1.26H1332.9Z"/><path d="M2100.57,366.12c-1.26,0-2.33-.06-3.46-.12l-1.89-.09-53-2.34,123.65-137h10.54a79.34,79.34,0,0,1-15.63-31.66,31.6,31.6,0,0,1-.78-7.43V126.05h137.8c30.85,0,71.6,0,113.18.07,15.57,0,28.05,6,38.09,10.84l2.13,1c28.4,13.53,47.73,35.37,57.48,64.92,5.09,15.45,3.34,29.91,1.93,41.53l-.09.79c-3.74,30.84-18.88,55.26-29.95,70.94-11.84,16.77-27.89,25.33-42.05,32.88l-.38.2c-17.13,9.14-35.14,13.33-48.9,16a56.25,56.25,0,0,1-10.66.91q-83.37,0-166.75,0Z"/><path d="M2532.42,195.06c-11.8-35.77-36.16-63.32-70.46-79.66l-2.07-1c-11-5.29-27.64-13.27-48.87-13.3-41.55-.06-82.26-.07-113.1-.07H2135v86.37a57.5,57.5,0,0,0,1.41,13.07,98.57,98.57,0,0,0,5.07,15.77l-1.62,1.8L2123.7,236l-64.5,71.48-71.06,78.75,22.1,1h395.93c13.26-3.1,28.57-7.8,43.73-15.88l.38-.2c15-8,35.45-18.91,50.71-40.53,12.63-17.89,29.94-45.89,34.34-82.35l.1-.78C2537.05,234.08,2539.26,215.81,2532.42,195.06Zm-46.72,47.15c-2.71,22.34-12.84,41.51-25.55,59.52-8.5,12-21.15,18.71-33.77,25.44-13.18,7-27.35,10.7-41.84,13.47a32.13,32.13,0,0,1-6,.46q-84.27,0-168.54,0H2100.58c-1,0-2-.08-4.26-.19L2177,251.55H2366.4c-4.83-4.66-10.22-9.86-15.6-15.07l1-1.4H2242.91c-25.61,0-52.07-21-57.77-45.79a9.34,9.34,0,0,1-.14-2V151.05h112.92q56.52,0,113,.07c10.72,0,20.06,4.93,29.5,9.43,22,10.47,36.86,27.07,44.49,50.18C2488.37,221.13,2487,231.67,2485.7,242.21Z"/><path d="M2038,365.85c-53.94-.08-107.82-.09-148.74-.09H1701.39L1828,225.89h9.8a90.08,90.08,0,0,1-7.32-11.51c-4.25-7.93-6.71-17.43-7.52-29-.59-8.46-.47-16.68-.36-24.63,0-3.17.1-6.44.1-9.65v-25h30.75q24.42,0,48.83,0t48.89,0c40.39,0,71.23.12,100,.39,14.24.13,27.47,4.37,38.75,8.32,32,11.25,56.68,33.85,71.24,65.36,6.48,14,6.2,27.61,6,38.53-.07,3.42-.14,6.65,0,9.47,1.23,22.48-12.17,36.55-20.18,45q-8,8.37-15.91,16.78c-11.22,11.85-22.83,24.11-34.47,36.07a55.21,55.21,0,0,1-21.42,13.5,114.46,114.46,0,0,1-37,6.49Z"/><path d="M1720.64,307.23l-72.32,79.94H2068.8q7.07-1.68,14.32-4.13a80.55,80.55,0,0,0,31.33-19.74c11.76-12.08,23.42-24.39,34.69-36.31,5.21-5.5,10.6-11.19,15.88-16.74,9.37-9.84,28.86-30.3,27-63.56-.1-1.89,0-4.66,0-7.6.25-12.05.62-30.26-8.28-49.52-17.45-37.8-47.07-64.93-85.66-78.47-14.13-5-29.59-9.57-46.78-9.73-28.85-.27-59.76-.39-100.21-.39q-24.47,0-48.93,0t-48.81,0h-55.75v50c0,3-.05,6.06-.09,9.28-.13,8.47-.25,17.22.41,26.73a104.33,104.33,0,0,0,5.66,28.43l-1.67,1.85ZM1839,250.89H2030l-17.68-16.19h-16.51c-17.52,0-35,.26-52.55.26-11.49,0-23-.11-34.44-.47-23.89-.75-44.39-9.69-56.31-31.93-3-5.57-4.16-12.54-4.61-19-.74-10.59-.2-21.26-.2-32.54h5.75q48.87,0,97.74-.07,49.88,0,99.74.39c10.27.09,20.84,3.45,30.7,6.91,26.25,9.21,45.18,27.05,56.82,52.25,5.71,12.37,3,25.85,3.74,38.89.63,11.59-6.22,18.89-13.32,26.34-16.72,17.56-33.27,35.29-50.19,52.65a30.13,30.13,0,0,1-11.51,7.26,90,90,0,0,1-29,5.18H2038q-74.58-.11-149.16-.09H1757.72Z"/><path d="M366.11,380.22c-4.21-3.49-8.48-6.79-13-10.28-2.53-2-5.1-3.95-7.73-6-101.12-.56-181.17-1-274.43-1H35.48l84.24-235.72H474.28l-95,94.63h80.7l7.58,15.3,8,16-81.13,81.61,22.24,27-16.93,16.87-16.09,16Z"/><path d="M489.22,224.64l-13.79-27.77H439.78l9.24-9.2,85.81-85.43H102.11L90.25,135.41,63.69,209.73,23.88,321.14,0,388H71c50.54,0,97.21.11,145.46.3H340.53v3.54c3.35,2.6,6.56,5.12,9.64,7.66l35,29,32.18-32.06.4-.4.41-.4,32.23-32.11-22.32-27.08,16.85-16.95,35.69-35.9,25.25-25.4-15.93-32.09ZM360.68,333.25l22.18,26.91-.81.8c-9.14-7.57-18.29-14.15-27.77-22-107.62-.6-188.19-1-283.32-1,22.22-62.18,44.27-123.88,66.38-185.73h276.4L336.61,229H232.82l-17.74,17.84H444.43c.23.47.47.95.71,1.42Z"/><polygon points="1494.53 364.95 1431.67 302.16 1494.45 126.28 1850.42 126.28 1750.86 225.73 1828.66 225.73 1841.97 257.39 1739.99 364.95 1494.53 364.95"/><path d="M1458.34,364.14l11.2,11.18,11.86,11.85h272l12.15-12.82L1797.2,341l51.68-54.52,22.47-23.69-12.66-30.1-.28-.64-.27-.66-12.88-30.61h-34l14.09-14.07,85.48-85.38h-434L1465,134.47l-51.54,144.38-10.64,29.81L1425.2,331Zm53.73-212.86H1790L1706.25,235h-97.67l-17.71,15.78h221.18l.55,1.3L1729.25,340H1504.87c-14.66-14.65-29.12-29.1-44.34-44.29C1477.61,247.83,1494.85,199.54,1512.07,151.28Z"/><path d="M495.36,365.61H331.19l33.89-40.94a60.72,60.72,0,0,1,8.45-8.11l1.36-1.14,16-16.7c20-21,40.72-42.6,61.29-63.76,5.52-5.68,11.18-11,16.65-16.15s10.5-9.89,15.31-14.85c7.8-8,15.2-16.43,22.86-25.23l-23.5-52.35H792l-77.51,75.89L731,222.82l-13.2,15.35,42.31,124.64h-181L565.72,319.7l-19.59,20.56,25.7,28.65L537.73,404Z"/><path d="M746,243.63l17.4-20.28-15.25-19,17.57-17.21,87.54-85.72H444.85l31.63,70.47,1.09,2.43c-3.79,4.22-7.57,8.32-11.41,12.28-4.41,4.55-9.31,9.16-14.5,14-5.67,5.34-11.53,10.86-17.43,16.93-20.67,21.25-41.42,43-61.49,64l-15,15.67-.16.13a84,84,0,0,0-11.78,11.44L280,388.27h60.56v2.34H485.71L503,406.32l35.83,32.49,33.66-34.72,1-1.06,14.75-15.22H795l-22.42-66.07Zm-47.54-21.38-.63.74L683.7,211.86l-1,.68c14.1,41.53,28.2,83.07,42.52,125.27H597.49c-6.8-22-13.56-43.85-20.47-66.22l-64.93,68.16,25.55,28.49-1,1L505,340.61H384.34c2.46-3,6.28-5.48,8.41-7.7,25.73-26.88,51.38-53.84,77.33-80.52,10.35-10.65,21.65-20.37,32-31,10-10.35,19.47-21.27,28.93-32.15,2-2.29,3-5.48,4.38-8.27L522.1,151.38H730.75l-49.89,48.86Z"/><path d="M831.06,363.57H737.79l-6.89-13.89c-1.18-2.38-2.39-4.78-3.6-7.2-3.83-7.65-7.79-15.57-11.57-23.72-5.15-11.1-1.42-21.59-.19-25,10.81-30.4,22-61.59,34.14-95.37,4.61-12.8,9.35-25.79,13.93-38.35q3.15-8.61,6.3-17.26l6-16.45h381.29L1152.87,155a92.45,92.45,0,0,1-17.62,42c-25.81,34.46-61.71,52.28-106.69,52.94-32.36.48-65.19.65-96.95.81l-5.68,0-8.74,9-15.71,16.09-5.16-4.07-21,57.83,27,31.28-18.91,18.09-16.52,15.8Z"/><path d="M1128.15,151.3a66.94,66.94,0,0,1-12.91,30.77c-21.76,29.06-51.39,42.41-87,42.93-43.27.64-86.54.72-129.81,1h-.28c-3.29,0-6.62-.36-11.18-.61l12.92,16.44-.54.56c-4.74-3.75-9.49-7.49-14.69-11.59L846.87,334.93l21,24.38L866.12,361l-25.68-22.42H753.29c-4.87-9.81-10.08-20-14.88-30.33-.75-1.61,0-4.22.68-6.14q17-47.67,34.11-95.28c6.66-18.49,13.43-36.93,20.2-55.52h334.75m58.09-50H758.39l-12,32.89-6.29,17.24c-4.6,12.59-9.35,25.6-14,38.45C714,223.58,702.85,254.8,692,285.34c-6.93,19.48-3.24,34.65,1.07,43.94,3.94,8.49,8,16.57,11.89,24.39l3.57,7.13,13.78,27.77h99.39l11.55,10.08,34.42,30.06,33-31.58,1.77-1.69,34.32-32.81-31-36-1.91-2.21,8.7-24,22.58-23.2.39-.39.17-.18.87-.9c30.31-.15,61.53-.33,92.36-.78,52.39-.78,96.08-22.54,126.34-63a117.14,117.14,0,0,0,22.33-53.3l8.65-57.44Z"/><path d="M2466.32,159H2167l-3.5-20.86c-2.82-16.79,2.54-30.41,6.45-40.36l.42-1.05c11.55-29.46,33.2-51.72,62.6-64.37,7.5-3.22,19.11-7.08,31.88-7.13C2321.34,25,2377.11,25,2424.2,25h140.73V88.69l-45,44.65,23.4,29-16.78,16.89-16.05,16.14Z"/><path d="M2424.22,50l111.68,0h4V78.28l-53.61,53.19c8,9.89,15.73,19.53,23.5,29.16l-1,1L2475.29,134H2188.15c-1.74-10.37,2-19.28,5.49-28.15,9.3-23.7,26-40.53,49.22-50.53,6.85-2.95,14.69-5.06,22.08-5.09q79.64-.3,159.28-.24m0-50c-47.15,0-103,0-159.46.24-17,.07-32,5-41.67,9.17-35.67,15.35-62,42.39-76,78.2l-.4,1c-4.42,11.23-11.81,30-7.85,53.65l7,41.72h311.5l5.63,4.64L2477,200.23l35.16,29,32.11-32.31,1-1,31.57-31.75-23.31-28.92,13.76-13.65,7.85-7.79,14.78-14.67V0H2424.22Z"/><path d="M1483.33,158.8l11.53-33.2c.89-2.56,1.75-5.07,2.61-7.55,1.89-5.47,3.67-10.64,5.55-15.93q3-8.46,6.07-16.9c4.25-11.8,8.65-24,12.73-36C1526.64,35.08,1538,27,1553,27h.11c26.38.06,52.16.07,73.9.07l142.29,0q39.85,0,79.71,0c8.25,0,16.52.18,24.51.35l8.87.18a39.09,39.09,0,0,1,5.42.52l1.52.23L1954.12,37,1900,73.78c-25,17-38.64,37.3-43,64l-3.42,21Z"/><path d="M1553,52h0q36.84.07,73.67.07h142.47l79.8,0c11,0,22,.32,33,.52.92,0,1.84.24,4,.53-29.49,20-48,46.18-53.63,80.71H1518.48c2.81-8.11,5.4-15.72,8.09-23.29,6.32-17.73,12.84-35.39,18.91-53.21,1.39-4.09,3.41-5.34,7.48-5.34m.11-50H1553c-25.56,0-46.57,15-54.81,39.22-4,11.76-8.37,23.86-12.58,35.56-2,5.55-4.07,11.3-6.1,17-1.93,5.4-3.73,10.64-5.64,16.19l-2.59,7.47-23,66.4h426.63l6.85-42c3.23-19.77,13.21-34.38,32.37-47.39L2022.28,21,1892.62,3.54l-1-.15a62.68,62.68,0,0,0-8.8-.82L1874,2.39c-8.11-.16-16.49-.34-25-.35-23.16,0-47.79,0-79.84,0H1626.68c-21.63,0-47.28,0-73.55-.07Z"/><polygon points="448.55 157.98 108.7 157.98 155.84 26.1 465.1 26.1 514.76 117.48 497.9 133.13 510.69 150.22 478.48 180.83 448.55 157.98"/><path d="M450.23,51.1l33.3,61.26L464.4,130.11l13,17.3-.66.61L457,133H144.19c9.93-27.8,19.59-54.82,29.26-81.88H450.23M480,1.1H138.22L126.37,34.27,103.1,99.37l-6,16.78L73.22,183H440.09l6.27,4.79,33.88,25.86,30.9-29.36.34-.31.31-.3L544,153l-12.64-16.88L546,122.6,527.46,88.48,503,43.46l-8.83-16.24L480,1.1Z"/><path d="M1814.88,158.79l13.55-34.2c1.21-3.07,2.4-6.22,3.55-9.26,2.68-7.09,5.46-14.43,8.9-21.73a122.46,122.46,0,0,1,37.53-46.49,95.35,95.35,0,0,1,58.23-19.56H1958c16.58,0,29.32,0,41.3.06q13,.06,26.08.17c10.74.09,21.86.18,32.74.19h1.17c8.08,0,16.35-.08,24.34-.15s16.49-.14,24.79-.14h.58c9.93,0,20,.08,29.71.16,8.15.07,16.58.13,24.84.15h2.93c6.47,0,13.09,0,19.49-.1q6.54-.06,13.08-.09h.16c1.94,0,3.55.16,4.72.27l.91.08,23.07,1.79V69.12l-7.3,7.32c-8.33,8.35-14.66,19-19.33,32.46a34.37,34.37,0,0,1-7.75,12.67c-7.84,8-15.7,16-23.31,23.73l-13.29,13.49Z"/><path d="M1957.92,52.54q20.64,0,41.27.06c19.63.07,39.26.34,58.89.36h1.19c16.39,0,32.77-.29,49.16-.29h.54c18.16,0,36.33.27,54.5.31h3c10.9,0,21.79-.14,32.69-.19h.05c1.11,0,2.23.16,3.7.28v5.7c-11.84,11.86-19.79,26.15-25.26,41.93a9.26,9.26,0,0,1-2,3.39c-9.86,10.11-19.79,20.16-29.18,29.69H1851.67c4.09-10.34,7.42-20.19,11.82-29.53a97.68,97.68,0,0,1,29.9-37.13,70.8,70.8,0,0,1,43.27-14.58h21.26m0-50h-21.29a121.42,121.42,0,0,0-73.2,24.55,147.27,147.27,0,0,0-45.17,55.84c-3.86,8.2-6.81,16-9.67,23.56-1.16,3.09-2.27,6-3.41,8.89l-27.08,68.4h389.28l14.69-14.91,6-6.11c7.6-7.72,15.46-15.69,23.32-23.75a59.43,59.43,0,0,0,13.46-21.93c3.42-9.85,7.81-17.38,13.42-23l14.6-14.63V6.79l-46.15-3.56-.42,0c-1.49-.14-4-.38-7.13-.38h-.28l-13.15.09c-6.36,0-12.94.1-19.31.1h-2.85c-8.2,0-16.6-.08-24.73-.15-9.76-.08-19.86-.16-29.88-.16h-.56c-8.41,0-16.85.07-25,.14-7.95.07-16.17.15-24.14.15h-1.15c-10.81,0-21.88-.1-32.59-.19-8.56-.06-17.41-.13-26.16-.17-12.09,0-24.87-.06-41.45-.06Z"/><path d="M763.11,158.86,813.48,26H964.57q55.95,0,111.89,0c14.44,0,30.42,5,43.9,13.78,16,10.36,27.12,25.11,31.45,41.54,3.86,14.6,4.17,28.24,4.16,41v36.48H969.79L978,144.25H917l-6.61,14.61Z"/><path d="M1076.52,51c18.49,0,45.07,13.76,51.12,36.7,3,11.53,3.34,22.94,3.33,34.57v11.5H1012.53l8.15-14.51H900.92l-6.61,14.61h-95L830.74,51H964.59q55.95,0,111.9,0h0m0-50h-.09c-32.62,0-67.12,0-111.85,0H796.22L784,33.29l-31.41,82.84L726.9,183.86H926.55l6.62-14.61h2l-8.16,14.51H1181V122.29c0-13.74-.36-29.86-5-47.36-5.93-22.45-20.84-42.38-42-56.12C1116.29,7.31,1095.89,1,1076.53,1Z"/><path d="M1120.17,158.8,1167.92,26h131.43c41.09,0,72.62,0,102.24.06,16.31,0,32.18,4.58,48.52,13.92,16.15,9.24,30.24,21.5,43.08,37.48,14.17,17.65,20.38,37.34,18.45,58.5l-2.08,22.73H1325.7l9.12-16.38h-61.1l-7.51,16.48Z"/><path d="M1299.29,51q51.14,0,102.27.06c13,0,24.89,4.19,36.13,10.62,14.13,8.08,25.88,18.83,36,31.44,9.43,11.74,14.48,25,13,40.57H1368.23l9.11-16.38H1257.63l-7.5,16.48h-94.4c9.94-27.66,19.78-55,29.76-82.78h113.8m0-50h-149l-11.9,33.08-9.53,26.51-20.23,56.27-24.07,66.92h197.68l7.51-16.48h2.5l-9.12,16.38h249.21l4.14-45.45c2.51-27.45-5.74-53.88-23.85-76.43-14.63-18.21-31.51-32.86-50.16-43.53-19.93-11.4-40.41-17.19-60.89-17.22C1372,1,1340.43,1,1299.29,1Z"/><path d="M498.07,158.93l-61-133.27H631.05l16.42,37L685.79,26.2h162.7L834.57,60.58c-1,2.35-1.89,4.49-2.8,6.55a66,66,0,0,0-3.39,8.59c-5.06,19-16.72,31.82-28.57,42.82-7.89,7.32-15.71,14.77-24,22.66q-5.56,5.31-11.42,10.87l-7.24,6.86Z"/><path d="M614.79,50.66,639,105.23l56.79-54H811.4c-2.56,6.3-5.57,12-7.19,18.1-3.45,13-12,22.16-21.4,30.91-11.59,10.75-23,21.72-35.62,33.72H514.13C501.46,106.24,488.91,78.81,476,50.66H614.79m32.52-50H398.18l32.39,70.79,13.18,28.83,24.91,54.45L482,183.93h285.1l14.47-13.72c3.93-3.72,7.73-7.35,11.46-10.9,8.22-7.83,16-15.23,23.76-22.45,13.88-12.87,29-29.41,35.68-54.55.31-.93,1.37-3.33,2.15-5.09.94-2.13,2-4.55,3.1-7.26L885.58,1.2H675.8L661.32,15l-5.38,5.13L647.31.66Z"/><path class="cls-1" d="M1350.55,202.2l109,109.16-.77,1.26H1315.9l-87.18-87.35h-10.24c-10.8,27.4-21.68,55-32.47,82.33,7.57,9.43,14.88,18.53,22.18,27.64l-1,1c-9.74-7.91-19.47-15.82-29.1-23.66H1064.86q33.75-93.6,67.51-187.28h336.88c-5.07,9.52-9.25,18.61-14.53,27-7.6,12.09-16.36,23.39-27.93,32-14.57,10.89-31.57,13.81-49.24,14.77C1368.82,199.6,1360.15,201.07,1350.55,202.2Z"/><path class="cls-1" d="M2160,225.55H2349.4c-4.83-4.66-10.22-9.86-15.6-15.07l1-1.4h-5.42q-51.75,0-103.5,0c-25.61,0-52.07-21-57.77-45.79a9.34,9.34,0,0,1-.14-2V125.05h5.45q110.25,0,220.5.06c10.72,0,20.06,4.93,29.5,9.43,22,10.47,36.86,27.07,44.49,50.18,3.43,10.41,2,20.95.76,31.49-2.71,22.34-12.84,41.51-25.55,59.52-8.5,12-21.15,18.71-33.77,25.44-13.18,7-27.35,10.7-41.84,13.47a32.13,32.13,0,0,1-6,.46q-139,0-278,0c-1,0-2-.08-4.26-.19Z"/><path class="cls-1" d="M1822,224.89H2013l-17.68-16.19h-16.51c-29,0-58,.7-87-.21-23.89-.75-44.39-9.69-56.31-31.93-3-5.57-4.16-12.54-4.61-19-.74-10.59-.2-21.26-.2-32.54h5.75c65.83,0,131.66-.3,197.48.32,10.27.09,20.84,3.45,30.7,6.91,26.25,9.21,45.18,27.05,56.82,52.25,5.71,12.37,3,25.85,3.74,38.89.63,11.59-6.22,18.89-13.32,26.34-16.72,17.56-33.27,35.29-50.19,52.65a30.13,30.13,0,0,1-11.51,7.26,89.83,89.83,0,0,1-29.12,5.18q-136.49-.19-273-.08h-7.31Z"/><path class="cls-1" d="M365.05,335l-27.77-23H54c22.22-62.18,44.27-123.88,66.38-185.73h276.4L319.61,203H215.82l-17.74,17.84H427.43l.71,1.42-84.46,85,22.18,26.91Z"/><path class="cls-1" d="M1487.87,314c-14.66-14.65-29.12-29.1-44.34-44.29,17.08-47.83,34.32-96.12,51.54-144.38H1773L1689.25,209h-97.67l-17.71,15.78h221.18l.55,1.3L1712.25,314Z"/><path class="cls-1" d="M708.18,311.81H580.49c-6.8-22-13.56-43.85-20.47-66.22l-64.93,68.16,25.55,28.49-1,1L488,314.61H369.34c2.46-3,4.28-5.48,6.41-7.7,25.73-26.88,51.38-53.84,77.33-80.52,10.35-10.65,21.65-20.37,32-31,10-10.35,19.47-21.27,28.93-32.15,2-2.29,3-5.48,4.38-8.27L505.1,125.38H713.75l-49.89,48.86,17.62,22-.64.74L666.7,185.86l-1,.68C679.76,228.07,693.86,269.61,708.18,311.81Z"/><path class="cls-1" d="M1111.15,125.3a66.94,66.94,0,0,1-12.91,30.77c-21.76,29.06-51.39,42.41-87,42.93-43.27.64-86.54.72-129.81,1-3.38,0-6.77-.35-11.46-.61l12.92,16.44-.54.56c-4.74-3.75-9.49-7.49-14.69-11.59L829.87,308.93l21,24.38L849.12,335l-25.68-22.42H736.29c-4.87-9.81-10.08-20-14.88-30.33-.75-1.61,0-4.22.68-6.14q17-47.67,34.11-95.28c6.66-18.49,13.43-36.93,20.2-55.52Z"/><path class="cls-1" d="M2522.93,24V52.28l-53.61,53.19,23.5,29.17-1,1L2458.29,108H2171.15c-1.74-10.37,2-19.28,5.49-28.15,9.3-23.7,26-40.53,49.22-50.53,6.85-2.95,14.69-5.06,22.08-5.09,90.32-.34,180.64-.22,271-.22Z"/><path class="cls-1" d="M1501.48,107.8c2.81-8.11,5.4-15.72,8.09-23.29,6.32-17.73,12.84-35.39,18.91-53.21,1.4-4.1,3.43-5.35,7.53-5.34q65,.15,130,.06,83,0,166,0c11,0,22,.32,33,.52.92,0,1.84.24,4,.53-29.49,20-48,46.18-53.63,80.71Z"/><path class="cls-1" d="M127.19,107c9.93-27.8,19.59-54.82,29.26-81.88H433.23l33.3,61.26L447.4,104.11l13,17.3-.66.62L440,107Z"/><path class="cls-1" d="M2185.89,27.08v5.7c-11.84,11.86-19.79,26.15-25.26,41.93a9.26,9.26,0,0,1-2,3.39c-9.86,10.11-19.79,20.16-29.18,29.69H1834.67c4.09-10.34,7.42-20.19,11.82-29.53a97.68,97.68,0,0,1,29.9-37.13,70.8,70.8,0,0,1,43.27-14.58q31.26,0,62.53.05c19.63.07,39.26.34,58.89.36,17,0,33.92-.3,50.89-.29,18.16,0,36.33.27,54.5.31,11.89,0,23.78-.13,35.67-.18C2183.27,26.79,2184.4,27,2185.89,27.08Z"/><path class="cls-1" d="M1114,107.76H995.53l8.15-14.51H883.92l-6.61,14.61h-95L813.74,25h5.84q120,0,239.91,0c18.48,0,45.09,13.75,51.15,36.7,3,11.53,3.34,22.94,3.33,34.57Z"/><path class="cls-1" d="M1240.63,91.32l-7.5,16.48h-94.4c9.94-27.66,19.78-55,29.76-82.78h6.1q105,0,210,.05c13,0,24.89,4.19,36.13,10.62,14.13,8.08,25.88,18.83,36,31.44,9.43,11.74,14.48,25,13,40.57H1351.23l9.11-16.38Z"/><path class="cls-1" d="M497.13,107.93C484.46,80.24,471.91,52.81,459,24.66H597.79L622,79.23l56.79-54H794.4c-2.56,6.3-5.57,12-7.19,18.1-3.45,13-12,22.16-21.4,30.91-11.59,10.75-23,21.72-35.62,33.72Z"/><rect x="340.39" y="346.86" width="82.89" height="77.06" transform="translate(384.34 -157.12) rotate(45)"/></g></g></svg>