<svg xmlns="http://www.w3.org/2000/svg" viewBox="0 0 2282.04 417.15"><defs><style>.cls-1{fill:#fff;}</style></defs><g id="Layer_2" data-name="Layer 2"><g id="Layer_1-2" data-name="Layer 1"><path d="M677.39,350.52H543.82l-63.82-64-5.89,6.08-6.36-5.21-11.43,29,24.74,30.8-16.13,16.16-15.35,15.4-35.4-28.49H275.7L356,122.46H742.79l-16.86,34.73c-.41.84-.78,1.65-1.14,2.42a81.78,81.78,0,0,1-3.71,7.32c-13.94,23.76-35.14,38.13-52.06,48a209,209,0,0,1-34,16.17c7.85,7.83,15.71,15.59,23.46,23.23,25.36,25,51.59,50.92,76,78.12l14.8,16.47-32.48,34.77Z"/><path d="M704.18,146.63c-1.46,3-2.53,5.64-3.95,8.06C689.88,172.33,674.08,184,656.85,194c-13.86,8.08-28.39,14.71-44,18.59-6.29,1.57-12.85,2.05-19.29,3-2.08.3-4.18.44-6.85.71,42.89,45,88.64,86.44,129.83,132.28l-1.71,1.82L686.2,326.35H553.86l-84-84.27H458.93l13.91,17c-.21.22-.42.43-.62.65L457.4,247.66l-28.72,73,20,24.85-.85.84-25.1-20.2H309.86c21.31-60.42,42.33-120,63.29-179.47h331m77.23-48.35H338.93l-11.37,32.27-42,119.13L264.27,310l-22.72,64.42H405.66l7.95,6.4,3.88,3.12,33.87,27.26L482,380.43l.42-.42.43-.42,27.89-28,8.84,8.87,14.17,14.21H668.58l15.16,12.74,35.1,29.5,31.31-33.49,1.72-1.83,30.26-32.37-29.62-33C728,289,702,263.25,676.73,238.35q2.22-1.24,4.47-2.55c19.46-11.35,43.94-28,60.73-56.64a105.14,105.14,0,0,0,4.8-9.41c.3-.64.6-1.3.94-2l33.74-69.47Z"/><path d="M901.15,367.3c-.79-.59-1.59-1.16-2.39-1.74-2.07-1.5-4.21-3.05-6.44-4.81l-.53-.42c-3.12-2.45-6.66-5.23-10.12-8.51-.51-.48-1-1-1.49-1.45H709.81l-58.1-60.64,124-167.13H1043.5L1078.67,350H944.87L919.7,381ZM896.29,219l-.17-1.86L894.27,219Z"/><path d="M1022.78,146.77q13.8,89.26,27.69,179.07H932.42c-.6-5.18-1.2-10.31-1.84-15.86l80.22-79.83H921.58l-6.07-66.74-79.46,79.74H974.46l-78.41,78.3,20.73,24.79-1.3,1.59c-2.74-2-5.53-4-8.21-6.07-3.06-2.41-6.16-4.82-9-7.5s-5.15-5.52-7.49-8.06H720.13l-36.84-38.46q52.38-70.58,104.6-141h234.89m41.44-48.34H763.57L749.07,118,668,227.19l-23.56,31.74-24.32,32.78,28.24,29.48,36.84,38.45,14.28,14.9H870.89c2.14,1.79,4.16,3.38,5.94,4.78l.54.43c2.61,2.06,5.06,3.83,7.22,5.39l2.23,1.62,37.09,27.31L953,378.35l.91-1.11.4-.5,2.07-2.55h150.51l-8.62-55.73-17.5-113.14,10.54-10.52h-12.16l-1.34-8.66-7.23-46.75-6.34-41Z"/><path d="M285.09,357.8c-1.32-1.06-2.62-2.14-3.92-3.23-1.76-1.46-3.44-2.87-5-4.07-21.27-.09-43.86-.17-66.06-.17-18.28,0-34.78.05-50.45.16h-.71c-15,0-28.75-3.29-40.89-6.2-2-.49-4.08-1-6.12-1.45a133,133,0,0,1-23.36-7.4c-28.49-12.38-47.28-35.79-57.45-71.55a236.7,236.7,0,0,1-7.7-43.32c-1.05-11.51,1.49-22.08,3.53-30.56,2.81-11.67,6-23.2,9.17-34.36q1.45-5.18,2.89-10.37a42.56,42.56,0,0,1,2.89-7.38c.11-.25.24-.49.35-.74l6.34-14.47,15.83-.07H213.87l.06-.07H384.44L315.76,318.33l17,21.31-14.85,15.82-15.33,16.43Z"/><path d="M351.35,146.73C330.67,205.67,310.12,264.22,289.52,323l12.3,15.41-.57.61c-4.13-3.32-8.08-6.9-12.46-9.86a15.4,15.4,0,0,0-8-2.77q-34.89-.15-69.78-.18-25.29,0-50.58.16h-.55c-14.33,0-27.86-3.86-41.56-7a110.81,110.81,0,0,1-19.17-6c-24.63-10.7-36.91-31.62-43.84-56a214.4,214.4,0,0,1-6.87-38.92c-.69-7.43,1.17-15.29,2.95-22.7,3.55-14.74,7.82-29.32,11.86-43.94a38.46,38.46,0,0,1,2.11-4.93h137.8L109,240.43l.78,1.13H213.4c3.62-3.72,10.45-10.65,15-15.3H150.45c-.19-.48-.37-.95-.55-1.43,26-27,49.13-51,75.29-78.1H351.35m68.19-48.35H204.66l-.06.06H42.7s-18.51,25.4-28.87,50.7c-3.18,11.36-6.48,23.11-9.39,35.21-2.2,9.13-5.52,22.93-4.1,38.44A260,260,0,0,0,8.86,270.5c12.1,42.57,36,71.88,71.07,87.11a156.09,156.09,0,0,0,27.55,8.78c2,.46,4,.94,5.93,1.41,13.44,3.22,28.68,6.87,46.52,6.87h.9c15.57-.1,32-.16,50.23-.16,19.21,0,38.73.06,57.44.14l2.43,2,35,28.15L336.56,372l.28-.3.29-.31,28.54-30.52L344,313.71l23.87-68L397,162.73l22.58-64.35Z"/><path d="M1176.16,350.48H1053l-5.34-16.88c0-.15-.12-.34-.19-.53a39.32,39.32,0,0,1-2-7.61q-2.48-16.24-4.9-32.51-3-20-6-39.94c-2.62-17.1-5.38-34.5-8-51.33l-1.78-11.25c-.87-5.55-1.77-11.09-2.66-16.64q-1.42-8.78-2.81-17.57c-.36-2.26-.49-4.25-.6-5.85,0-.49-.06-1-.1-1.54l-2.19-26.18h150.95l3.52,29.47,21.37-29.56h146.9l8.15,7.82,15.67,15L1224.25,324.77,1238.69,343l-15.75,16.72-15.48,16.45Z"/><path d="M1329.34,146.73l1.13,1.08L1193.55,325l13.22,16.68-1.44,1.53-20.53-16.85H1070.73a30.78,30.78,0,0,1-1.39-4.49c-3.68-24.15-7.24-48.32-10.95-72.47-3.2-20.91-6.53-41.8-9.83-62.7-1.8-11.4-3.68-22.79-5.48-34.2-.27-1.74-.31-3.52-.49-5.63h103.22c2.71,22.72,5.43,45.55,8.3,69.62l50.4-69.71h124.83m19.46-48.35h-169l-.06.09H990.05l4.37,52.37c0,.38.05.75.07,1.1.13,1.87.31,4.69.84,8.05q1.39,8.82,2.82,17.64,1.33,8.28,2.66,16.57l1.76,11.15c2.66,16.83,5.42,34.25,8,51.33,2,13.25,4.06,26.77,6,39.84,1.61,10.67,3.26,21.71,4.92,32.58a62.26,62.26,0,0,0,3.21,12.19v0l10.53,33.33h132.21l7.16,5.87,34.91,28.65,31-32.89,1.44-1.53,28.62-30.42-15.66-19.76,36.29-46.94,77.49-100.26L1395.28,143,1364,113l-.58-.56-.55-.53-14-13.48Z"/><path d="M1985.2,366.59c-9.4-4.53-16.5-10.75-22.74-16.38H1814.53l12.29-32.68,3.61-9.66c2.67-7.16,5.19-13.92,7.87-20.82,3.16-8.16,6.4-16.42,9.54-24.4s6.37-16.21,9.5-24.3c2.27-5.85,4.49-11.7,6.72-17.55,3.18-8.37,6.45-17,9.83-25.53-4.38-10-8.71-20.09-12.91-29.88l-2.29-5.36a36.83,36.83,0,0,1-2-6.13c0-.2-.09-.42-.16-.66l-8.36-30.55h276.66l-77.43,75.84L2061,215.29l-31.21,33.05-5.66-4.51L2002.25,312,2029,344.14l-27.53,30.29Z"/><path d="M2065.65,146.86l-50.81,49.77L2028.91,214l-1.45,1.54-15.66-12.49c-12.29,38.3-24.46,76.23-36.61,114.12L1997,343.43l-1.26,1.39c-9.1-4.39-15.94-11.9-24.06-18.78h-122.2c3.94-10.49,7.58-20.41,11.4-30.26,6.29-16.26,12.75-32.45,19.05-48.71,6.18-16,12.1-32,18.46-47.91a10.21,10.21,0,0,0-.2-8.76c-5.85-13.26-11.54-26.58-17.25-39.89a32.83,32.83,0,0,1-1-3.65h185.76M2184.1,98.52H1816.54l16.65,60.85,0,.16a59,59,0,0,0,3.25,10l2.22,5.19c3,6.9,6,13.95,9,21-2.13,5.53-4.22,11-6.27,16.4-2.18,5.74-4.44,11.68-6.67,17.44-3.11,8-6.33,16.23-9.45,24.17s-6.41,16.31-9.6,24.53c-2.72,7-5.27,13.87-8,21.1q-1.76,4.72-3.59,9.61l-24.57,65.35h173.77c5.8,4.82,53.8,29.66,53.8,29.66l24.28-26.7.63-.69.63-.7L2061,344.86l-26.85-32.32-4.83-5.81,11-34.4,22.24-23.56,1.46-1.54,29-30.7-14-16.1,19.43-19,84.62-82.88Z"/><path d="M1480.88,152.32l5.22-28.52c.46-2.54,1-4.91,1.43-7.22a97.76,97.76,0,0,0,1.94-11.28c1.78-21,13.54-34.39,23.6-43.67,7-6.43,13.6-13.23,20.65-20.43,3.11-3.18,6.23-6.37,9.38-9.53l7.08-7.11h279.59l23.15,55.66-72.55,72.1Z"/><path d="M1813.64,48.74c3.58,8.59,7.19,17.28,10.72,25.77l-54,53.64H1509.88c1.31-7.18,3.1-14,3.68-20.81,1-12,7.51-20.2,15.91-28,10.6-9.79,20.49-20.36,30.75-30.64h253.42M1845.89.39H1540.14L1526,14.61c-3.25,3.26-6.44,6.53-9.53,9.68-6.82,7-13.27,13.57-19.77,19.58-7.05,6.51-28.49,26.31-31.28,59.4-.16,1.81-.85,5.16-1.53,8.4-.48,2.33-1,5-1.54,7.78l-10.43,57h338.44l14.15-14.05,54-53.64,23-22.88L1869,56l-2.77-6.67-8-19.11L1845.89.39Z"/><path d="M553.48,152.35l8.24-14.81H500.14l-6.88,14.76H345.8L392.31,24.36h22.77q27.39,0,54.78,0t54.73,0c40.06,0,70.89-.07,99.93-.24h1c20.21,0,36.48,3.95,51.19,12.41,15,8.61,30.26,18.92,40.86,36,12.24,19.69,16.58,39.15,13.28,59.5l-3.3,20.29Z"/><path d="M625.47,48.34c14,0,26.92,2.17,39.14,9.2C677.2,64.78,689.17,72.73,697,85.32c8,12.91,12.55,26.83,10,42.86H594.59l8.24-14.81H484.75c-2.12,4.55-4.44,9.53-6.88,14.75H380.31c9.67-26.59,19.22-52.87,28.93-79.59h5.84q54.75,0,109.51.06,50,0,100.08-.24h.8m0-48.34h-1.11c-29,.17-59.77.25-99.78.25q-27.36,0-54.71,0t-54.8,0H375.37L363.8,32,347.37,77.23l-12.5,34.38L311.3,176.47H508.65l6.89-14.75h5.07l-8.24,14.81H748.06l6.6-40.6c4.22-26-1.37-51.61-16.61-76.13-13.46-21.65-32.49-34.48-49.33-44.17C670.44,5.11,649.75,0,625.48,0Z"/><path d="M1622.69,350.22h-134l78.64-227.62H1740l-70.61,196.21c5.13,5.59,10.63,11.95,15.06,20l9,16.37-31.06,29.34Z"/><path d="M1705.56,146.77C1684.18,206.19,1663,265,1641.73,324.14c6.93,8.65,15.92,16.19,21.47,26.32l-1.6,1.5-29.89-25.91H1522.64c20.78-60.14,41.34-119.63,61.94-179.28h121m68.77-48.35H1550.14L1538.89,131,1477,310.26l-22.16,64.13h158.88l3.11,2.7,13.15,11.4,33,28.66,31.81-30,.8-.75.79-.76L1723.53,360l-17.93-32.75a105.87,105.87,0,0,0-8.78-13.39l54.23-150.71,23.28-64.72Z"/><path d="M1404.85,350.43H1269.37l84.48-227.89h163l-69.71,194.09a69.55,69.55,0,0,1,10.6,15.58l7.61,15.73-13.93,13.5-15.81,15.34Z"/><path d="M1482.52,146.71l-63.13,175.74c6.08,6.5,12.78,12.34,16.62,20.29l-1.39,1.35-20.84-17.83H1304.11c22.3-60.16,44.39-119.76,66.56-179.55h111.85m68.73-48.35H1337l-11.69,31.55-66.56,179.55-24.15,65.15h161.29l7.27,6.21,33.47,28.65,31.62-30.68.7-.68.7-.67,25.06-24.32-15.21-31.43c-1.61-3.33,1.64-6.39-.19-9.21l21-61.28L1532,163.05l19.23-64.69Z"/><polygon points="1855.27 152.43 1797.15 24.61 1969.96 24.61 1991.47 62.66 2027.77 24.55 2221.36 24.55 2092.49 152.43 1855.27 152.43"/><path d="M2162.69,48.72l-80.16,79.54h-211.7L1834.7,48.78h121.15c10,17.59,19.9,35.19,30.63,54.18l51.65-54.24h124.56M2282,.37H2017.4l-14.28,15-6.66,7L1984.06.43H1759.61l31.08,68.36,15.38,33.84,20.75,45.64,12.88,28.34h261.75l16.14-14,53-51.64L2198.74,83,2282,.37Z"/><path d="M38.46,152.35l21.91-36.59.26-.47A32,32,0,0,1,65.71,108C84,88.77,102.42,73.87,122,62.49a288.21,288.21,0,0,1,96.46-34.74,239.26,239.26,0,0,1,38.46-3.26c16-.13,33.57-.19,55.23-.19q16.83,0,33.66,0t33.59,0h40.25L406.14,62.68c-3.39,9.62-6.62,18.79-9.87,28a28.46,28.46,0,0,1-6.78,10.57c-13,13.05-26,26.1-38.88,39l-12.16,12.18Z"/><path d="M312.14,48.47c22.42,0,44.83.06,67.24.06h6.11c-4.18,11.88-8.07,23-12,34a4.58,4.58,0,0,1-1.11,1.59c-14.73,14.78-29.48,29.54-44,44H81.11a21.67,21.67,0,0,1,2.13-3.5c15.17-16,31.79-30.18,50.9-41.3a263.18,263.18,0,0,1,88.41-31.81,214.9,214.9,0,0,1,34.55-2.91q27.52-.22,55-.19m0-48.35c-21.72,0-39.34.07-55.44.2a263.69,263.69,0,0,0-42.37,3.61A312.42,312.42,0,0,0,109.82,41.6C88.25,54.15,68.09,70.43,48.19,91.38a55.61,55.61,0,0,0-8.82,12.4l-22.88,49.9c-6,10.06-5.78,22.84,5.94,22.84h326l14.16-14.18,6.1-6.11c12.52-12.53,25.21-25.24,37.88-37.95a52.29,52.29,0,0,0,12.44-19.56c3.27-9.2,6.49-18.34,9.89-28l2.15-6.11L453.77.19H379.38l-33.55,0q-16.84,0-33.69,0Z"/><polygon points="753.84 152.31 848.45 24.58 1028.33 24.58 1048.13 152.31 753.84 152.31"/><path d="M1007.61,48.75c4.09,26.4,8.18,52.75,12.31,79.39H801.82l58.8-79.39h147M1049,.41H836.27L821.78,20,772.64,86.31l-9.67,13-57.12,77.12h370.49l-8.65-55.75-3.72-24-8.58-55.41L1049,.41Z"/><path d="M1170.74,152.28,1262.9,24.6h161.85l-12.44,32.76c-1.58,4.17-3,8.41-4.57,12.9-3.76,11-7.64,22.35-13.78,33.38s-14.06,20.75-21,29.25c-2.82,3.44-5.47,6.69-7.9,9.87l-7.26,9.52Z"/><path d="M1389.72,48.78c-5.63,14.8-9.54,29.91-16.89,43.12s-18.12,24.56-27,36.21H1218l57.26-79.33h114.46M1459.78.43H1250.53l-14.47,20.05L1211.44,54.6,1178.8,99.81l-55.31,76.64h246.27l14.51-19c2.18-2.86,4.71-5.95,7.39-9.22,7.59-9.28,16.19-19.8,23.43-32.81s11.61-25.87,15.52-37.3c1.47-4.3,2.86-8.36,4.3-12.15L1459.78.43Z"/><polygon points="1342.87 152.24 1390.21 24.5 1552.11 24.5 1506.29 152.24 1342.87 152.24"/><path d="M1517.76,48.68c-9.58,26.69-19,52.94-28.48,79.39H1377.6L1407,48.68h110.73M1586.46.33H1373.39L1361.7,31.87l-15.32,41.34-14.11,38.05-24.14,65.15H1523.3l11.48-32,16.94-47.22L1563.26,65,1586.46.33Z"/><polygon points="1018.57 152.11 998.64 24.58 1155.82 24.58 1170.89 152.11 1018.57 152.11"/><path d="M1134.33,48.75c3.1,26.2,6.2,52.46,9.36,79.19H1039.25c-4.1-26.29-8.21-52.6-12.37-79.19h107.45M1177.3.4H970.4l8.72,55.81,1.78,11.43,10.59,67.76,6.39,40.88h200.2l-6.38-54-4.14-35.08-5.22-44.11L1177.3.4Z"/><path class="cls-1" d="M673.88,309.5H539.32l-71.51-71.73-7,7.29-12.06-9.86-23,58.5L447.6,321,436,332.64l-29.07-23.39H283.53l70.14-198.91H708.78l-5.93,12.22c-.46,1-.88,1.86-1.29,2.73a66.67,66.67,0,0,1-3,6c-12.18,20.76-30.61,33.35-47,42.92s-31.63,16-46.81,19.75a96.42,96.42,0,0,1-10.54,1.92c14.41,14.77,29.14,29.31,43.49,43.47,25.55,25.21,52,51.28,76.41,78.49l5.21,5.79-12.56,13.43Z"/><path d="M695.2,118.84c-1.48,3.06-2.56,5.73-4,8.18-10.49,17.87-26.51,29.69-44,39.87-14.05,8.2-28.78,14.92-44.59,18.86-6.37,1.58-13,2.07-19.55,3-2.1.3-4.23.45-6.94.72C619.62,235.11,666,277.1,707.74,323.55L706,325.4,677,301H542.84l-85.13-85.41H446.62l14.1,17.28-.63.66-15-12.29Q430.3,258.79,416,295.18l20.24,25.19-.86.85-25.44-20.47H295.54c21.59-61.24,42.91-121.68,64.14-181.91H695.2m27.16-17H347.65l-4,11.35L301.05,234l-21.55,61.1-8,22.66h132.4l2.73,2.19,18,14.53,11.91,9.58,10.79-10.82.86-.86L459,321.59l-9.53-11.87-14-17.49,2.85-7.27,14.1-35.8,9.08,7.43,6.47-6.69,22.85,22.92,40,40.18,5,5h135l24.29,20.41,12.35,10.38,11-11.78.86-.93.87-.92,10.64-11.38-10.42-11.59c-24.61-27.4-51.12-53.56-76.75-78.86C632.92,222.77,622,212,611.17,201.07c14.52-4.08,29.17-10.48,44.62-19.49,16.35-9.53,36.82-23.37,50.07-46a74.19,74.19,0,0,0,3.42-6.76c.38-.83.78-1.69,1.22-2.59l11.86-24.43Z"/><path class="cls-1" d="M904.33,329.62l-2.51-1.83c-2-1.43-4-2.9-6-4.49l-.54-.43c-3-2.38-6.17-4.85-9.15-7.67-2.05-1.94-3.9-4-5.55-5.85H707.74l-44.82-46.78L775.77,110.49h249.64l30.7,198.5H919l-3.13-27.06-14.65,14.62,20.52,24.53-10.85,13.34Zm3.11-121.45-4.86-53.43-53.24,53.43Z"/><path d="M1018.12,119l28.07,181.5H926.53c-.6-5.26-1.21-10.45-1.86-16.08L1006,203.5H915.55q-3.15-34.6-6.15-67.64l-80.54,80.81H969.15L889.67,296l21,25.12-1.32,1.62c-2.78-2-5.61-4-8.32-6.16-3.11-2.44-6.24-4.88-9.11-7.6s-5.23-5.59-7.6-8.17h-173l-37.34-39L780.05,119h238.07m14.57-17H771.5l-5.1,6.87-106,142.88-8.55,11.53,9.93,10.36L676,288.49l23.1,24.12,5,5.24H876.78c1.07,1.16,2.23,2.34,3.47,3.52,3.26,3.09,6.55,5.67,9.73,8.17l.55.44c2.15,1.69,4.26,3.22,6.3,4.7l2.46,1.79,13,9.6,10.23-12.57,1.11-1.36.21-.26L932.72,321l-2.94-3.52H1066l-3-19.6-28.07-181.5-2.23-14.4ZM869.81,199.67l26-26,2,22.28.34,3.77Z"/><path class="cls-1" d="M280.47,320.42c-1.27-1-2.52-2.06-3.77-3.1a103.89,103.89,0,0,0-8.29-6.48,7.61,7.61,0,0,0-3.34-1.34c-26.2-.12-48.25-.19-70.69-.19-18.56,0-35.3.05-51.21.16h-.61c-13.3,0-25.71-3-37.72-5.84q-3.15-.76-6.32-1.5a119,119,0,0,1-20.9-6.59C53.41,285,37.31,264.67,28.4,233.32c-3.53-12.4-7.29-26.87-7.29-41.77a139.51,139.51,0,0,1,22.68-75.81c.14-.23.27-.42.37-.58l2-4.65H205l.06-.07H348.56l-65.08,185.5,14.11,17.67-11,11.76Zm-154-113.86-4-10.47,3.75-3.89c11.39-11.79,22.22-23,33-34.2L110.4,206.56Z"/><path d="M336.57,118.94,273.91,297.56l12.46,15.62-.57.61c-4.19-3.36-8.19-7-12.63-10a15.51,15.51,0,0,0-8.06-2.8q-35.37-.15-70.73-.19-25.63,0-51.26.16h-.56c-14.52,0-28.24-3.91-42.12-7.12A111.83,111.83,0,0,1,81,287.74C56,276.9,43.6,255.7,36.57,231c-3.64-12.79-7-26.12-7-39.44,0-42.42,21.42-70.87,22.15-72.54H186.43L90.94,213.92l.79,1.14h105c3.66-3.77,10.59-10.8,15.17-15.51H133c-.19-.48-.37-1-.55-1.44,26.39-27.35,49.79-51.7,76.31-79.17H336.57m24-17H201.49l-.06.07H40.6l-4,9.12a148,148,0,0,0-24,80.43c0,16,3.93,31.14,7.61,44.08,9.66,34,27.32,56.1,54,67.7a127.48,127.48,0,0,0,22.38,7.07c2.08.48,4.17,1,6.25,1.48,12.49,3,25.4,6.08,39.7,6.08h.67c15.89-.11,32.62-.16,51.15-.16,23.34,0,47.13.09,69.43.18,2.38,1.62,4.84,3.68,7.45,5.85,1.25,1,2.53,2.12,3.87,3.2l12.3,9.89,10.78-11.52.29-.31.28-.31,10.05-10.73-9.17-11.49-6.6-8.26,35.4-100.91,24.15-68.83,7.94-22.63Z"/><path class="cls-1" d="M1179.3,309.46H1060.49l-1.88-5.94c-.12-.39-.26-.77-.4-1.15a23.74,23.74,0,0,1-1.3-4.68q-2.51-16.43-5-32.86-3-20.29-6.13-40.58c-2.67-17.41-5.47-35.11-8.18-52.22l-1.79-11.29q-1.33-8.49-2.71-17-1.44-8.85-2.84-17.7c-.24-1.57-.34-3-.43-4.47,0-.59-.08-1.21-.14-1.86l-.77-9.2h121.41L1157.1,167,1198,110.45h134.29l9.11,8.76L1202,299.52,1215.82,317l-11.92,12.67Z"/><path d="M1328.84,119l1.14,1.1L1191.21,299.58l13.39,16.91-1.45,1.55L1182.34,301H1066.72a32.93,32.93,0,0,1-1.41-4.55c-3.72-24.48-7.34-49-11.09-73.45-3.25-21.19-6.62-42.37-10-63.55-1.83-11.56-3.73-23.1-5.55-34.66-.28-1.77-.32-3.58-.5-5.71h104.62c2.75,23,5.51,46.17,8.41,70.56,17.52-24.23,34.33-47.47,51.08-70.65h126.53m6.84-17h-142l-5.09,7L1163,144.36l-.92-7.72L1159.7,117l-1.79-15H1019.73l1.53,18.41c0,.59.09,1.16.12,1.7.1,1.54.22,3.29.53,5.25.93,5.93,1.89,11.85,2.84,17.78q1.37,8.44,2.71,16.89l1.8,11.37c2.7,17.08,5.49,34.73,8.15,52.09,2.07,13.49,4.13,27.21,6.13,40.49,1.62,10.8,3.3,22,5,33a32.24,32.24,0,0,0,1.71,6.3c.1.27.2.54.29.82l3.75,11.87h122l16.11,13.22,12.28,10.07,10.88-11.56,1.45-1.55,10.07-10.7-9.12-11.51-5.14-6.48,49.1-63.51,81.54-105.5,9.34-12.08-11-10.58-.76-.72-.39-.38-4.93-4.73Z"/><path class="cls-1" d="M2000.54,327.38c-8-3.84-14.21-9.49-20.25-15-1.19-1.07-2.4-2.16-3.62-3.24h-133l4.32-11.49q1.88-5,3.68-9.82c2.69-7.21,5.23-14,7.9-20.92,3.2-8.26,6.49-16.62,9.67-24.71s6.46-16.44,9.64-24.66q3.46-8.94,6.85-17.91c3.84-10.09,7.81-20.52,11.9-30.74a2.14,2.14,0,0,0-.09-2.3c-5.19-11.75-10.33-23.74-15.3-35.34l-2.21-5.17a21.41,21.41,0,0,1-1.13-3.64c-.09-.36-.18-.74-.29-1.16l-2.94-10.74H2096l-60.86,59.61,14.08,17.43-6.57,6.95-5.37,5.68-12.35-9.85L1993,289.9l23.81,28.67-10.52,11.56Z"/><path d="M2075.13,119.08l-51.5,50.44,14.26,17.65-1.47,1.56-15.87-12.66c-12.46,38.82-24.79,77.26-37.11,115.67l22.07,26.57-1.28,1.41c-9.22-4.45-16.16-12.06-24.39-19H1856c4-10.63,7.68-20.69,11.55-30.67,6.38-16.48,12.93-32.89,19.31-49.37,6.26-16.18,12.27-32.46,18.71-48.56a10.39,10.39,0,0,0-.2-8.89c-5.93-13.43-11.69-26.93-17.48-40.43a30.76,30.76,0,0,1-1-3.69h188.28m41.65-17H1864.57l5.88,21.48c.09.33.16.62.22.9a29.65,29.65,0,0,0,1.59,5l2.25,5.24c4.67,10.91,9.5,22.17,14.38,33.28-3.81,9.57-7.49,19.27-11.07,28.67-2.23,5.86-4.53,11.92-6.83,17.84-3.18,8.22-6.46,16.57-9.64,24.65s-6.46,16.46-9.66,24.72c-2.69,6.95-5.24,13.78-7.94,21-1.21,3.23-2.42,6.49-3.67,9.81l-8.64,23h142l1.16,1c6.18,5.59,13.2,11.94,22.25,16.3l11.43,5.52,8.54-9.39.64-.7.64-.71,9.94-10.93-9.44-11.37-6.38-7.67-9.73-11.73,17-53,9.74-30.34,8.83,7.05,10.74-11.37.73-.78.74-.77,10.2-10.8-9.34-11.56-4.55-5.63,20.49-20.07,20-19.56,29.76-29.15Z"/><path class="cls-1" d="M1501.63,108.61l1.83-10c.44-2.38.92-4.7,1.38-6.94a113.79,113.79,0,0,0,2.24-13.33c1.33-15.75,10.27-26,18.83-33.87,7.35-6.78,14.55-14.15,21.52-21.27q4.68-4.79,9.39-9.54l2.49-2.5h266.06l15.24,36.63-61.23,60.85Z"/><path d="M1819.7,19.63c3.63,8.71,7.29,17.52,10.87,26.12l-54.7,54.36h-264c1.33-7.27,3.15-14.13,3.73-21.09,1-12.1,7.61-20.47,16.13-28.33,10.75-9.93,20.77-20.64,31.16-31.06H1819.7m11.35-17H1555.78l-5,5c-3.19,3.21-6.37,6.46-9.45,9.61-7.21,7.37-14,14.33-21.21,21-9.19,8.49-19.94,20.64-21.53,39.39a107.83,107.83,0,0,1-2.09,12.33c-.48,2.29-1,4.65-1.42,7.14l-3.67,20h291.45l5-4.94,18.75-18.63,35.94-35.73,8.1-8.05-4.38-10.54L1841,26.61,1835.4,13.1l-4.35-10.47Z"/><path class="cls-1" d="M569.67,108.65l8.35-15H478.21l-7,15H354.81l35.5-97.67h11.88l55.5,0,55.49,0c40.64,0,71.91-.08,101.38-.25h.87c17.57,0,31.52,3.32,43.9,10.45s26.48,16,35.81,31c10.27,16.53,14,32.65,11.25,49.29l-1.16,7.14Z"/><path d="M615.43,19.23c14.18,0,27.28,2.19,39.66,9.31C667.86,35.89,680,44,687.92,56.71c8.13,13.08,12.72,27.19,10.08,43.44H584.13l8.35-15H472.8l-7,15H366.94l29.32-80.67h5.93q55.5,0,111,.06,50.7,0,101.41-.25h.82m0-17h-.92c-29.45.17-60.7.25-101.31.25l-55.5,0q-27.75,0-55.51,0H384.36l-4.07,11.19-4,11L351,94.28l-8.29,22.81h134l4.58-9.81,1.08-2.33,1.32-2.81h79.93l-8.35,15H712.46l2.32-14.28c3.05-18.75-1-36.79-12.42-55.14C692.48,31.85,677.88,22,663.57,13.81c-13.73-7.9-29-11.58-48.14-11.58Z"/><path class="cls-1" d="M1632.14,309.19H1512.83l68.65-198.7h140.77L1655.13,297c1.39,1.58,2.87,3.17,4.39,4.82,5.39,5.83,11,11.87,15.16,19.51l3.15,5.75-12,11.31Z"/><path d="M1710.16,119c-21.68,60.22-43.12,119.82-64.69,179.78,7,8.76,16.13,16.4,21.75,26.67l-1.61,1.52-30.3-26.27H1524.76c21.06-60.95,41.89-121.25,62.78-181.7h122.62m24.18-17H1575.43l-4,11.44-35.63,103.16-27.15,78.55-7.79,22.55H1629l22,19.06,3.52,3.06,11.62,10.07,11.19-10.56.8-.76.81-.76,9.55-9-6.31-11.52c-4.68-8.55-10.89-15.27-16.37-21.19l-.91-1,61.3-170.36,8.19-22.75Z"/><path class="cls-1" d="M1411.29,309.41H1291.05l73.76-199h131.36L1429.89,295l.14.14c5.34,5.49,10.87,11.16,14.58,18.81l2.67,5.53-11.38,11Z"/><path d="M1484.09,118.93c-21.44,59.7-42.68,118.82-64,178.12,6.16,6.59,13,12.5,16.85,20.56l-1.42,1.37-21.11-18.07H1303.26l67.47-182h113.36m24.17-17H1358.9L1354.79,113,1311,231.1,1287.32,295l-8.49,22.91h129.32l7.5,6.42,8.84,7.57L1436.26,342l11.12-10.79.71-.68.7-.69,8.82-8.55-5.35-11.05c-3.4-7-8-12.53-12.58-17.34L1492.42,146l7.67-21.36,8.17-22.74Z"/><polygon class="cls-1" points="1872.19 108.73 1827.84 11.17 1968.8 11.17 1996.64 60.41 2043.59 11.11 2194.12 11.11 2095.74 108.73 1872.19 108.73"/><path d="M2173.48,19.61c-26.23,26-52.9,52.5-81.24,80.62H1877.67c-12.13-26.67-24.28-53.41-36.63-80.56h122.8c10.08,17.83,20.17,35.67,31,54.91l52.35-55h126.25m41.27-17H2039.94l-5,5.27L2025,18.31l-26.61,27.93-.86-1.52L1978.64,11.3l-4.88-8.63H1814.64l10.93,24,11.3,24.86,25.32,55.7,4.53,10h232.53l5-4.93,39.46-39.17,41.78-41.46,29.29-29.06Z"/><path class="cls-1" d="M48.69,108.64l7.7-12.87c.25-.41.45-.79.63-1.13a17,17,0,0,1,2.66-3.9c17.49-18.4,35-32.58,53.48-43.35A276.49,276.49,0,0,1,205.6,14.12,226.09,226.09,0,0,1,242,11.05c16.19-.13,33.93-.2,55.84-.2q17,0,34.09,0t34.07,0h18.2l-6,17.09c-3.48,9.9-6.8,19.32-10.14,28.73a12.7,12.7,0,0,1-3.12,4.77C351.74,74.73,338.56,87.93,325.55,101l-7.67,7.68Z"/><path d="M297.86,19.35c22.72,0,45.43.07,68.14.07h6.2C368,31.45,364,42.68,360,53.9a4.67,4.67,0,0,1-1.13,1.61C344,70.49,329,85.45,314.35,100.14H63.69a21.69,21.69,0,0,1,2.16-3.54C81.23,80.41,98.07,66,117.43,54.74a266.92,266.92,0,0,1,89.62-32.25,218.26,218.26,0,0,1,35-2.94q27.89-.23,55.79-.2m0-17c-21.94,0-39.72.07-55.94.2a235.1,235.1,0,0,0-37.77,3.19A285.21,285.21,0,0,0,108.88,40C89.68,51.22,71.57,65.89,53.52,84.89a25,25,0,0,0-4,5.73c-.16.32-.31.59-.43.79L33.69,117.14H321.4l5-5,5.61-5.61c12.87-12.88,25.91-25.95,38.95-39a21.2,21.2,0,0,0,5.11-7.93c3.3-9.28,6.55-18.52,10-28.3l2.19-6.22,8-22.64H366q-17,0-34,0t-34.09,0Z"/><polygon class="cls-1" points="777.29 108.6 849.49 11.14 1010.03 11.14 1025.14 108.6 777.29 108.6"/><path d="M1002.75,19.64c4.15,26.76,8.29,53.46,12.47,80.46H794.17l59.6-80.46h149m14.56-17H845.2l-5.09,6.88L801.19,62.06,780.51,90,760.42,117.1h274.64l-3-19.6-5.8-37.4L1019.55,17l-2.24-14.4Z"/><path class="cls-1" d="M1199.37,108.57l70.31-97.4h132.67L1398,22.68c-1.7,4.48-3.29,9.11-4.82,13.59-3.58,10.47-7.29,21.29-12.81,31.23s-12.75,18.8-19.7,27.28c-2.94,3.6-5.72,7-8.35,10.45l-2.55,3.34Z"/><path d="M1390,19.67c-5.7,15-9.67,30.32-17.11,43.7s-18.37,24.9-27.38,36.7H1216c19.75-27.37,38.9-53.9,58-80.4h116m24.64-17H1265.33l-5.09,7.05-4.82,6.68-53.21,73.72-19.46,26.95H1354l5.1-6.69c2.54-3.33,5.28-6.67,8.17-10.21,7.18-8.78,14.61-17.85,20.55-28.54S1397.5,49.84,1401.2,39c1.51-4.41,3.07-9,4.72-13.32l8.75-23Z"/><polygon class="cls-1" points="1365.54 108.53 1401.67 11.06 1531.89 11.06 1496.92 108.53 1365.54 108.53"/><path d="M1519.81,19.56c-9.71,27.06-19.25,53.67-28.87,80.47H1377.76l29.82-80.47h112.23m24.16-17H1395.75l-4.11,11.1-16.83,45.4-13,35.06-8.5,22.91h149.59l4-11.26,19.51-54.38,9.36-26.09L1544,2.56Z"/><polygon class="cls-1" points="1027.55 108.4 1012.35 11.14 1138.74 11.14 1150.23 108.4 1027.55 108.4"/><path d="M1131.19,19.64c3.14,26.56,6.28,53.17,9.48,80.26H1034.82c-4.16-26.65-8.33-53.31-12.54-80.26h108.91m15.11-17H1002.42l3.06,19.62,8.75,56,3.79,24.28,2.25,14.37H1159.8l-2.25-19-6.34-53.68-3.14-26.59-1.77-15Z"/></g></g></svg>