<svg xmlns="http://www.w3.org/2000/svg" viewBox="0 0 2589.93 787.77"><defs><style>.cls-1{fill:#fff;}</style></defs><g id="Layer_2" data-name="Layer 2"><g id="Layer_1-2" data-name="Layer 1"><path d="M715.51,350.52H582l-63.83-64-5.88,6.08-6.37-5.21-11.43,29,24.74,30.8-16.13,16.16-15.34,15.4L452.3,350.27H313.83l80.33-227.81H780.91l-16.86,34.73c-.41.84-.78,1.65-1.14,2.42a79.19,79.19,0,0,1-3.71,7.32c-13.94,23.76-35.14,38.13-52.06,48a208.91,208.91,0,0,1-34,16.17c7.85,7.83,15.7,15.59,23.45,23.23,25.36,25,51.59,50.92,76,78.12l14.81,16.47L755,383.68Z"/><path d="M742.3,146.63c-1.46,3-2.53,5.64-3.95,8.06C728,172.33,712.2,184,695,194c-13.86,8.08-28.39,14.71-44,18.59-6.29,1.57-12.85,2.05-19.29,3-2.08.3-4.18.44-6.85.71,42.89,45,88.65,86.44,129.83,132.28-.57.6-1.14,1.21-1.7,1.82l-28.65-24.07H592l-84-84.27H497.05l13.91,17c-.21.22-.42.43-.62.65l-14.82-12.12q-14.58,37-28.71,73l20,24.85-.84.84-25.11-20.2H348c21.31-60.42,42.34-120,63.29-179.47h331m77.24-48.35H377.06l-11.38,32.27-42,119.13L302.39,310l-22.72,64.42H443.78l8,6.4,3.87,3.12,33.87,27.26,30.68-30.79.43-.42.42-.42,27.89-28,8.84,8.87,14.17,14.21h134.8l15.15,12.74,35.1,29.5,31.32-33.49,1.71-1.83,30.26-32.37-29.62-33c-24.52-27.28-50.55-53-75.78-77.93q2.22-1.24,4.47-2.55c19.46-11.35,43.95-28,60.73-56.64a105.14,105.14,0,0,0,4.8-9.41c.3-.64.6-1.3.94-2l33.75-69.47Z"/><path d="M939.27,367.3c-.79-.59-1.59-1.16-2.38-1.74-2.07-1.5-4.22-3.05-6.45-4.81l-.53-.42c-3.12-2.45-6.65-5.23-10.12-8.51-.51-.48-1-1-1.49-1.45H747.94l-58.1-60.64,124-167.13h267.77L1116.79,350H983L957.82,381ZM934.41,219l-.17-1.86L932.39,219Z"/><path d="M1060.9,146.77q13.81,89.26,27.7,179.07H970.54c-.6-5.18-1.19-10.31-1.84-15.86l80.23-79.83H959.7l-6.07-66.74-79.45,79.74h138.4l-78.41,78.3,20.73,24.79-1.29,1.59c-2.75-2-5.54-4-8.21-6.07-3.07-2.41-6.16-4.82-9-7.5s-5.16-5.52-7.5-8.06H758.25l-36.84-38.46L826,146.77H1060.9m41.44-48.34H801.69L787.19,118,706.14,227.19l-23.55,31.74-24.33,32.78,28.24,29.48,36.84,38.45,14.28,14.9H909c2.14,1.79,4.16,3.38,5.94,4.78l.54.43c2.62,2.06,5.07,3.83,7.23,5.39l2.22,1.62L962,414.07l29.07-35.72.91-1.11.4-.5,2.08-2.55H1145l-8.62-55.73-17.49-113.14,10.53-10.52h-12.16l-1.34-8.66-7.23-46.75-6.34-41Z"/><path d="M323.21,357.8c-1.32-1.06-2.62-2.14-3.92-3.23-1.75-1.46-3.44-2.87-5-4.07-21.27-.09-43.86-.17-66.06-.17-18.28,0-34.78.05-50.44.16h-.72c-15,0-28.74-3.29-40.89-6.2-2-.49-4.07-1-6.12-1.45a132.84,132.84,0,0,1-23.35-7.4c-28.5-12.38-47.29-35.79-57.46-71.55a235.89,235.89,0,0,1-7.69-43.32C60.48,209.06,63,198.49,65.06,190c2.81-11.67,6-23.2,9.17-34.36q1.45-5.18,2.89-10.37A42.56,42.56,0,0,1,80,137.9c.11-.25.24-.49.35-.74l6.34-14.47,15.83-.07H252l.06-.07H422.56L353.88,318.33l17,21.31L356,355.46l-15.33,16.43Z"/><path d="M389.47,146.73C368.79,205.67,348.25,264.22,327.64,323l12.3,15.41-.57.61c-4.13-3.32-8.08-6.9-12.45-9.86a15.46,15.46,0,0,0-8-2.77q-34.89-.15-69.78-.18-25.29,0-50.58.16h-.55c-14.33,0-27.86-3.86-41.56-7a110.81,110.81,0,0,1-19.17-6c-24.63-10.7-36.91-31.62-43.84-56a214.4,214.4,0,0,1-6.87-38.92c-.68-7.43,1.17-15.29,3-22.7,3.55-14.74,7.81-29.32,11.85-43.94a38.46,38.46,0,0,1,2.11-4.93h137.8l-94.21,93.64.78,1.13H251.52c3.62-3.72,10.45-10.65,15-15.3H188.57c-.18-.48-.37-.95-.55-1.43,26-27,49.13-51,75.29-78.1H389.47m68.19-48.35H242.79l-.06.06H80.82s-18.5,25.4-28.87,50.7c-3.18,11.36-6.47,23.11-9.39,35.21-2.2,9.13-5.52,22.93-4.09,38.44A260,260,0,0,0,47,270.5c12.1,42.57,36,71.88,71.08,87.11a156.24,156.24,0,0,0,27.54,8.78c2,.46,4,.94,5.93,1.41,13.45,3.22,28.68,6.87,46.52,6.87h.9c15.58-.1,32-.16,50.23-.16,19.21,0,38.73.06,57.44.14l2.43,2,35,28.15L374.68,372l.28-.3.29-.31,28.54-30.52-21.67-27.15,23.87-68,29.1-82.94,22.57-64.35Z"/><path d="M1214.28,350.48H1091.14l-5.34-16.88c0-.15-.12-.34-.19-.53a38.73,38.73,0,0,1-2-7.61q-2.47-16.24-4.91-32.51-3-20-6-39.94c-2.62-17.1-5.37-34.5-8-51.33l-1.78-11.25c-.87-5.55-1.77-11.09-2.66-16.64-.94-5.85-1.89-11.71-2.81-17.57-.36-2.26-.49-4.25-.59-5.85,0-.49-.07-1-.11-1.54l-2.18-26.18h151l3.51,29.47,21.37-29.56h146.9l8.15,7.82,15.67,15L1262.37,324.77,1276.81,343l-15.75,16.72-15.48,16.45Z"/><path d="M1367.46,146.73l1.13,1.08Q1300.18,236.34,1231.67,325l13.22,16.68-1.43,1.53-20.53-16.85H1108.85a30.78,30.78,0,0,1-1.39-4.49c-3.67-24.15-7.24-48.32-10.94-72.47-3.21-20.91-6.54-41.8-9.84-62.7-1.8-11.4-3.68-22.79-5.48-34.2-.27-1.74-.31-3.52-.48-5.63h103.21c2.71,22.72,5.44,45.55,8.31,69.62l50.39-69.71h124.83m19.46-48.35h-169l-.07.09H1028.17l4.37,52.37c0,.38,0,.75.08,1.1.12,1.87.3,4.69.83,8.05q1.4,8.82,2.82,17.64c.89,5.52,1.79,11,2.66,16.57l1.76,11.15c2.67,16.83,5.42,34.25,8,51.33,2,13.25,4.06,26.77,6,39.84,1.6,10.67,3.25,21.71,4.91,32.58a62.26,62.26,0,0,0,3.21,12.19v0l10.54,33.33h132.2l7.16,5.87,34.92,28.65,31-32.89,1.44-1.53,28.62-30.42-15.66-19.76,36.29-46.94,77.49-100.26L1433.4,143,1402.08,113l-.58-.56-.55-.53-14-13.48Z"/><path d="M2023.32,366.59c-9.4-4.53-16.5-10.75-22.73-16.38H1852.65l12.29-32.68c1.23-3.27,2.43-6.48,3.61-9.66,2.67-7.16,5.2-13.92,7.87-20.82,3.16-8.16,6.4-16.42,9.54-24.4s6.37-16.21,9.51-24.3c2.26-5.85,4.48-11.7,6.71-17.55,3.18-8.37,6.45-17,9.83-25.53-4.38-10-8.7-20.09-12.9-29.88l-2.3-5.36a36.59,36.59,0,0,1-2-6.13l-.16-.66-8.37-30.55H2163l-77.43,75.84,13.53,16.76-31.21,33.05-5.65-4.51L2040.38,312l26.72,32.17-27.52,30.29Z"/><path d="M2103.77,146.86,2053,196.63,2067,214c-.48.52-1,1-1.45,1.54-5-4-10-8-15.66-12.49-12.29,38.3-24.45,76.23-36.61,114.12l21.78,26.22c-.43.46-.85.93-1.27,1.39-9.09-4.39-15.94-11.9-24.06-18.78h-122.2c4-10.49,7.59-20.41,11.4-30.26,6.29-16.26,12.75-32.45,19-48.71,6.18-16,12.1-32,18.46-47.91a10.21,10.21,0,0,0-.2-8.76c-5.85-13.26-11.53-26.58-17.24-39.89a30.6,30.6,0,0,1-1-3.65h185.76m118.45-48.34H1854.66l16.65,60.85,0,.16a59,59,0,0,0,3.25,10l2.22,5.19c3,6.9,6,13.95,9,21-2.14,5.53-4.22,11-6.28,16.4-2.18,5.74-4.44,11.68-6.67,17.44-3.1,8-6.33,16.23-9.45,24.17s-6.41,16.31-9.59,24.53c-2.73,7-5.28,13.87-8,21.1l-3.6,9.61-24.57,65.35h173.77c5.8,4.82,53.81,29.66,53.81,29.66l24.27-26.7.63-.69.64-.7,28.26-31.09-26.85-32.32-4.82-5.81,11-34.4,22.25-23.56,1.45-1.54,29-30.7-14-16.1,19.43-19,84.62-82.88Z"/><path d="M1519,152.32l5.21-28.52c.46-2.54,1-4.91,1.43-7.22a97.76,97.76,0,0,0,1.94-11.28c1.78-21,13.55-34.39,23.6-43.67,7-6.43,13.61-13.23,20.65-20.43,3.11-3.18,6.23-6.37,9.38-9.53l7.08-7.11h279.59L1891,80.22l-72.55,72.1Z"/><path d="M1851.76,48.74c3.58,8.59,7.19,17.28,10.73,25.77-17.85,17.74-35.64,35.41-54,53.64H1548c1.31-7.18,3.1-14,3.68-20.81,1-12,7.51-20.2,15.91-28,10.6-9.79,20.5-20.36,30.75-30.64h253.42M1884,.39H1578.27L1564.1,14.61c-3.26,3.26-6.45,6.53-9.54,9.68-6.82,7-13.27,13.57-19.77,19.58-7,6.51-28.49,26.31-31.28,59.4-.16,1.81-.85,5.16-1.52,8.4-.49,2.33-1,5-1.55,7.78l-10.43,57h338.45l14.14-14.05,54-53.64,23-22.88-12.47-30-2.77-6.67-7.95-19.11L1884,.39Z"/><path d="M591.6,152.35l8.24-14.81H538.27l-6.89,14.76H383.93l46.5-127.94H453.2q27.39,0,54.78,0t54.73,0c40.07,0,70.89-.07,99.94-.24h1c20.2,0,36.47,3.95,51.19,12.41,15,8.61,30.25,18.92,40.85,36,12.24,19.69,16.59,39.15,13.28,59.5l-3.3,20.29Z"/><path d="M663.6,48.34c14,0,26.91,2.17,39.13,9.2,12.59,7.24,24.56,15.19,32.38,27.78,8,12.91,12.55,26.83,9.95,42.86H632.71L641,113.37H522.87c-2.12,4.55-4.44,9.53-6.88,14.75H418.43c9.67-26.59,19.22-52.87,28.93-79.59h5.84q54.75,0,109.51.06,50,0,100.08-.24h.81M663.6,0h-1.11c-29,.17-59.77.25-99.78.25q-27.36,0-54.71,0t-54.8,0H413.5L401.93,32,385.49,77.23,373,111.61l-23.58,64.86H546.77l6.89-14.75h5.07l-8.24,14.81h235.7l6.59-40.6c4.22-26-1.36-51.61-16.61-76.13-13.45-21.65-32.49-34.48-49.33-44.17C708.56,5.11,687.87,0,663.6,0Z"/><path d="M1660.82,350.22h-134l78.64-227.62h172.59l-70.6,196.21c5.12,5.59,10.62,11.95,15,20l9,16.37-31.06,29.34Z"/><path d="M1743.68,146.77l-63.82,177.37c6.93,8.65,15.91,16.19,21.46,26.32l-1.59,1.5-29.89-25.91H1560.77c20.77-60.14,41.33-119.63,61.94-179.28h121m68.77-48.35H1588.26L1577,131l-61.94,179.28-22.15,64.13H1651.8l3.1,2.7,13.16,11.4,33,28.66,31.81-30,.8-.75.8-.76L1761.65,360l-17.92-32.75a105.9,105.9,0,0,0-8.79-13.39l54.23-150.71,23.28-64.72Z"/><path d="M1443,350.43H1307.49L1392,122.54h163l-69.72,194.09a69.55,69.55,0,0,1,10.6,15.58l7.61,15.73-13.93,13.5-15.81,15.34Z"/><path d="M1520.64,146.71c-21.16,58.91-42.11,117.23-63.12,175.74,6.07,6.5,12.77,12.34,16.61,20.29l-1.39,1.35-20.83-17.83H1342.23c22.3-60.16,44.4-119.76,66.56-179.55h111.85m68.73-48.35H1375.15l-11.69,31.55L1296.9,309.46l-24.15,65.15h161.3l7.26,6.21,33.47,28.65,31.63-30.68.69-.68.7-.67,25.06-24.32-15.2-31.43c-1.61-3.33,1.63-6.39-.19-9.21l21-61.28,31.66-88.15,19.23-64.69Z"/><polygon points="1893.39 152.43 1835.28 24.61 2008.08 24.61 2029.59 62.66 2065.89 24.55 2259.49 24.55 2130.61 152.43 1893.39 152.43"/><path d="M2200.81,48.72l-80.15,79.54H1909l-36.13-79.48H1994L2024.6,103l51.65-54.24h124.56M2320.16.37H2055.53l-14.29,15-6.66,7L2022.18.43H1797.74l31.07,68.36,15.38,33.84,20.75,45.64,12.88,28.34h261.75l16.14-14,53-51.64L2236.87,83,2320.16.37Z"/><path d="M76.59,152.35l21.9-36.59c.1-.16.18-.33.26-.47a31.78,31.78,0,0,1,5.09-7.26c18.3-19.26,36.7-34.16,56.26-45.54a288.29,288.29,0,0,1,96.46-34.74A239.29,239.29,0,0,1,295,24.49c16-.13,33.57-.19,55.22-.19q16.83,0,33.66,0l33.59,0h40.26l-13.5,38.32c-3.38,9.62-6.61,18.79-9.87,28a28.43,28.43,0,0,1-6.77,10.57c-13,13.05-26,26.1-38.89,39l-12.16,12.18Z"/><path d="M350.27,48.47c22.41,0,44.82.06,67.23.06h6.12c-4.19,11.88-8.08,23-12,34a4.58,4.58,0,0,1-1.11,1.59c-14.73,14.78-29.48,29.54-43.95,44H119.23a22.41,22.41,0,0,1,2.13-3.5c15.18-16,31.79-30.18,50.9-41.3a263.18,263.18,0,0,1,88.41-31.81,214.93,214.93,0,0,1,34.56-2.91q27.51-.22,55-.19m0-48.35c-21.73,0-39.35.07-55.44.2a263.72,263.72,0,0,0-42.38,3.61A312.42,312.42,0,0,0,147.94,41.6c-21.57,12.55-41.72,28.83-61.62,49.78a55.76,55.76,0,0,0-8.83,12.4l-22.88,49.9c-6,10.06-5.78,22.84,6,22.84h326l14.16-14.18,6.1-6.11,37.89-37.95a52.39,52.39,0,0,0,12.43-19.56c3.27-9.2,6.49-18.34,9.89-28l2.16-6.11L491.89.19H417.5L384,.16q-16.84,0-33.68,0Z"/><polygon points="791.96 152.31 886.57 24.58 1066.45 24.58 1086.25 152.31 791.96 152.31"/><path d="M1045.73,48.75c4.1,26.4,8.18,52.75,12.31,79.39H839.94l58.81-79.39h147M1087.16.41H874.39L859.9,20,810.77,86.31l-9.67,13L744,176.48h370.49l-8.64-55.75-3.72-24-8.59-55.41L1087.16.41Z"/><path d="M1208.87,152.28,1301,24.6h161.85l-12.43,32.76c-1.59,4.17-3,8.41-4.58,12.9-3.76,11-7.64,22.35-13.78,33.38s-14.06,20.75-21,29.25c-2.81,3.44-5.47,6.69-7.9,9.87l-7.26,9.52Z"/><path d="M1427.84,48.78c-5.62,14.8-9.54,29.91-16.88,43.12s-18.13,24.56-27,36.21H1256.13c19.48-27,38.38-53.18,57.26-79.33h114.45M1497.9.43H1288.66l-14.47,20.05L1249.56,54.6l-32.63,45.21-55.32,76.64h246.27l14.51-19c2.18-2.86,4.71-5.95,7.39-9.22,7.59-9.28,16.2-19.8,23.43-32.81s11.61-25.87,15.52-37.3c1.47-4.3,2.86-8.36,4.3-12.15L1497.9.43Z"/><polygon points="1380.99 152.24 1428.33 24.5 1590.23 24.5 1544.41 152.24 1380.99 152.24"/><path d="M1555.88,48.68c-9.58,26.69-19,52.94-28.48,79.39H1415.73c9.87-26.65,19.59-52.87,29.42-79.39h110.73M1624.58.33H1411.51l-11.69,31.54L1384.5,73.21l-14.1,38.05-24.15,65.15h215.17l11.49-32,16.93-47.22L1601.38,65,1624.58.33Z"/><polygon points="1056.69 152.11 1036.76 24.58 1193.94 24.58 1209.01 152.11 1056.69 152.11"/><path d="M1172.46,48.75c3.09,26.2,6.19,52.46,9.35,79.19H1077.38c-4.11-26.29-8.22-52.6-12.38-79.19h107.46m43-48.35H1008.52l8.72,55.81L1019,67.64l10.59,67.76,6.39,40.88h200.21l-6.39-54-4.14-35.08-5.21-44.11-5-42.68Z"/><path class="cls-1" d="M712,309.5H577.44l-71.5-71.73-7.05,7.29-12.05-9.86-23,58.5L485.72,321,474.1,332.64,445,309.25H321.65l70.14-198.91H746.9L741,122.56c-.46,1-.88,1.86-1.28,2.73-.92,2-1.86,4-3,6-12.18,20.76-30.6,33.35-47,42.92S658,190.21,642.82,194a95.56,95.56,0,0,1-10.54,1.92c14.41,14.77,29.14,29.31,43.5,43.47,25.54,25.21,52,51.28,76.4,78.49l5.21,5.79-12.55,13.43Z"/><path d="M733.33,118.84c-1.49,3.06-2.57,5.73-4,8.18-10.49,17.87-26.5,29.69-44,39.87-14.05,8.2-28.77,14.92-44.58,18.86-6.38,1.58-13,2.07-19.56,3-2.1.3-4.23.45-6.94.72,43.47,45.63,89.85,87.62,131.59,134.07-.57.62-1.15,1.23-1.73,1.85l-29-24.4H581l-85.13-85.41H484.75c5,6.19,9.57,11.74,14.1,17.28l-.63.66-15-12.29q-14.79,37.55-29.1,73.94l20.23,25.19-.86.85L448,300.75H333.66c21.59-61.24,42.91-121.68,64.15-181.91H733.33m27.15-17H385.77l-4,11.35L339.18,234l-21.55,61.1-8,22.66H442l2.73,2.19,18,14.53,11.91,9.58,10.79-10.82.86-.86,10.74-10.78-9.53-11.87-14.05-17.49,2.86-7.27,14.09-35.8,9.08,7.43L506,249.9l22.85,22.92,40,40.18,5,5h135l24.29,20.41,12.34,10.38,11-11.78.86-.93.87-.92,10.64-11.38-10.41-11.59c-24.62-27.4-51.13-53.56-76.76-78.86C671,222.77,660.12,212,649.29,201.07c14.53-4.08,29.17-10.48,44.62-19.49,16.35-9.53,36.82-23.37,50.07-46a74.19,74.19,0,0,0,3.42-6.76c.38-.83.78-1.69,1.22-2.59l11.86-24.43Z"/><path class="cls-1" d="M942.45,329.62l-2.51-1.83c-2-1.43-4-2.9-6-4.49l-.55-.43c-3-2.38-6.17-4.85-9.15-7.67-2.05-1.94-3.9-4-5.55-5.85H745.86l-44.81-46.78L813.9,110.49h249.63l30.7,198.5H957.08L954,281.93l-14.64,14.62,20.52,24.53L949,334.42Zm3.11-121.45-4.86-53.43-53.24,53.43Z"/><path d="M1056.24,119l28.07,181.5H964.66c-.61-5.26-1.21-10.45-1.87-16.08l81.31-80.91H953.67q-3.15-34.6-6.15-67.64L867,216.67h140.28L927.79,296l21,25.12-1.32,1.62c-2.78-2-5.61-4-8.32-6.16-3.11-2.44-6.24-4.88-9.11-7.6s-5.22-5.59-7.59-8.17h-173l-37.34-39L818.17,119h238.07m14.58-17H809.62l-5.1,6.87-106,142.88-8.56,11.53,9.93,10.36,14.24,14.86,23.11,24.12,5,5.24H914.9c1.08,1.16,2.23,2.34,3.48,3.52,3.26,3.09,6.54,5.67,9.72,8.17l.56.44c2.14,1.69,4.25,3.22,6.29,4.7.83.59,1.65,1.19,2.46,1.79l13.05,9.6,10.22-12.57,1.11-1.36.21-.26L970.85,321l-2.94-3.52h136.23l-3-19.6L1073,116.39l-2.22-14.4ZM907.93,199.67l26-26,2,22.28.34,3.77Z"/><path class="cls-1" d="M318.59,320.42c-1.27-1-2.52-2.06-3.76-3.1-2.84-2.37-5.52-4.6-8.3-6.48a7.63,7.63,0,0,0-3.33-1.34c-26.21-.12-48.26-.19-70.7-.19-18.55,0-35.3.05-51.2.16h-.62c-13.29,0-25.71-3-37.72-5.84q-3.15-.76-6.32-1.5a119,119,0,0,1-20.9-6.59C91.53,285,75.43,264.67,66.52,233.32c-3.53-12.4-7.29-26.87-7.29-41.77a139.51,139.51,0,0,1,22.68-75.81l.37-.58,2-4.65H243.16l.06-.07H386.68l-65.07,185.5,14.11,17.67-11,11.76ZM164.64,206.56l-4-10.47,3.74-3.89c11.39-11.79,22.22-23,33-34.2l-48.86,48.56Z"/><path d="M374.69,118.94,312,297.56l12.46,15.62-.57.61c-4.19-3.36-8.19-7-12.62-10a15.57,15.57,0,0,0-8.07-2.8q-35.36-.15-70.73-.19-25.63,0-51.26.16h-.56c-14.52,0-28.24-3.91-42.12-7.12a111.83,111.83,0,0,1-19.43-6.11c-25-10.84-37.41-32-44.44-56.75-3.63-12.79-7-26.12-7-39.44,0-42.42,21.42-70.87,22.15-72.54H224.55l-95.49,94.91.79,1.14h105c3.67-3.77,10.59-10.8,15.17-15.51h-79l-.55-1.44c26.4-27.35,49.79-51.7,76.31-79.17H374.69m24-17H239.61l-.06.07H78.73l-4,9.12a148.13,148.13,0,0,0-24,80.43c0,16,3.93,31.14,7.61,44.08,9.66,34,27.32,56.1,54,67.7a127.48,127.48,0,0,0,22.38,7.07c2.09.48,4.17,1,6.25,1.48,12.49,3,25.4,6.08,39.7,6.08h.67c15.89-.11,32.62-.16,51.15-.16,23.34,0,47.13.09,69.43.18,2.38,1.62,4.85,3.68,7.45,5.85,1.25,1,2.54,2.12,3.88,3.2l12.29,9.89,10.78-11.52.29-.31.29-.31,10-10.73-9.17-11.49-6.59-8.26,35.4-100.91,24.15-68.83,7.93-22.63Z"/><path class="cls-1" d="M1217.42,309.46H1098.61l-1.87-5.94c-.13-.39-.27-.77-.4-1.15a23.69,23.69,0,0,1-1.31-4.68q-2.49-16.43-5-32.86-3.06-20.29-6.14-40.58c-2.67-17.41-5.47-35.11-8.18-52.22L1074,160.74q-1.35-8.49-2.72-17-1.42-8.85-2.83-17.7c-.25-1.57-.35-3-.44-4.47,0-.59-.08-1.21-.13-1.86l-.77-9.2h121.4l6.73,56.44,40.87-56.53h134.29l9.12,8.76L1240.12,299.52,1254,317,1242,329.64Z"/><path d="M1367,119l1.15,1.1L1229.33,299.58l13.4,16.91-1.46,1.55L1220.46,301H1104.84a31.55,31.55,0,0,1-1.4-4.55c-3.73-24.48-7.35-49-11.1-73.45-3.25-21.19-6.62-42.37-10-63.55-1.82-11.56-3.73-23.1-5.55-34.66-.28-1.77-.32-3.58-.49-5.71h104.61c2.75,23,5.51,46.17,8.42,70.56,17.51-24.23,34.32-47.47,51.08-70.65H1367m6.84-17h-142l-5.09,7-25.58,35.37-.92-7.72L1197.82,117,1196,102H1057.85l1.54,18.41c0,.59.08,1.16.12,1.7.1,1.54.21,3.29.52,5.25q1.4,8.9,2.85,17.78,1.35,8.44,2.7,16.89l1.8,11.37c2.7,17.08,5.5,34.73,8.16,52.09,2.06,13.49,4.12,27.21,6.12,40.49,1.62,10.8,3.3,22,5,33a32.24,32.24,0,0,0,1.71,6.3c.1.27.2.54.29.82l3.75,11.87h122l16.11,13.22,12.28,10.07,10.88-11.56,1.46-1.55,10.06-10.7-9.12-11.51-5.13-6.48L1300,235.94l81.55-105.5,9.34-12.08-11-10.58-.76-.72-.38-.38L1373.8,102Z"/><path class="cls-1" d="M2038.66,327.38c-8-3.84-14.21-9.49-20.25-15-1.19-1.07-2.4-2.16-3.62-3.24h-133l4.32-11.49q1.88-5,3.67-9.82c2.69-7.21,5.23-14,7.9-20.92,3.2-8.26,6.49-16.62,9.67-24.71s6.46-16.44,9.64-24.66q3.46-8.94,6.85-17.91c3.84-10.09,7.81-20.52,11.9-30.74a2.14,2.14,0,0,0-.09-2.3c-5.19-11.75-10.33-23.74-15.3-35.34l-2.21-5.17a21.41,21.41,0,0,1-1.13-3.64c-.09-.36-.18-.74-.29-1.16l-2.93-10.74h220.23l-60.85,59.61,14.07,17.43-6.57,6.95-5.37,5.68L2063,190.4l-31.92,99.5,23.81,28.67-10.52,11.56Z"/><path d="M2113.25,119.08l-51.5,50.44L2076,187.17l-1.47,1.56-15.87-12.66c-12.46,38.82-24.79,77.26-37.11,115.67l22.07,26.57-1.28,1.41c-9.22-4.45-16.15-12.06-24.39-19H1894.11c4-10.63,7.69-20.69,11.55-30.67,6.38-16.48,12.93-32.89,19.31-49.37,6.26-16.18,12.27-32.46,18.71-48.56a10.39,10.39,0,0,0-.2-8.89c-5.93-13.43-11.69-26.93-17.48-40.43a30.76,30.76,0,0,1-1-3.69h188.28m41.65-17H1902.7l5.87,21.48c.09.33.16.62.22.9a29.65,29.65,0,0,0,1.59,5l2.25,5.24c4.67,10.91,9.5,22.17,14.38,33.28-3.8,9.57-7.49,19.27-11.07,28.67-2.23,5.86-4.53,11.92-6.82,17.84-3.18,8.22-6.47,16.57-9.64,24.65s-6.47,16.46-9.67,24.72c-2.69,6.95-5.24,13.78-7.94,21-1.2,3.23-2.42,6.49-3.67,9.81l-8.64,23h142l1.16,1c6.19,5.59,13.2,11.94,22.26,16.3l11.42,5.52,8.54-9.39.64-.7.64-.71,9.94-10.93-9.44-11.37-6.38-7.67-9.73-11.73,17-53,9.73-30.34,8.83,7.05,10.74-11.37.74-.78.73-.77,10.2-10.8-9.33-11.56-4.56-5.63,20.49-20.07,20-19.56,29.76-29.15Z"/><path class="cls-1" d="M1539.75,108.61l1.83-10c.44-2.38.92-4.7,1.38-6.94a116,116,0,0,0,2.25-13.33c1.32-15.75,10.26-26,18.82-33.87,7.35-6.78,14.55-14.15,21.52-21.27q4.68-4.79,9.39-9.54l2.5-2.5H1863.5l15.23,36.63-61.23,60.85Z"/><path d="M1857.83,19.63c3.62,8.71,7.28,17.52,10.86,26.12L1814,100.11h-264c1.33-7.27,3.15-14.13,3.74-21.09,1-12.1,7.6-20.47,16.12-28.33,10.75-9.93,20.77-20.64,31.16-31.06h256.87m11.34-17H1593.91l-5,5c-3.19,3.21-6.37,6.46-9.45,9.61-7.21,7.37-14,14.33-21.2,21-9.2,8.49-20,20.64-21.53,39.39a110.24,110.24,0,0,1-2.1,12.33c-.47,2.29-1,4.65-1.42,7.14l-3.67,20H1821l5-4.94,18.75-18.63,36-35.73,8.09-8.05-4.38-10.54-5.25-12.61-5.62-13.51-4.35-10.47Z"/><path class="cls-1" d="M607.79,108.65l8.35-15h-99.8l-7,15H392.93l35.5-97.67h11.88l55.5,0,55.49,0c40.64,0,71.91-.08,101.38-.25h.87c17.57,0,31.52,3.32,43.91,10.45s26.47,16,35.8,31c10.27,16.53,14,32.65,11.25,49.29l-1.16,7.14Z"/><path d="M653.55,19.23c14.19,0,27.28,2.19,39.67,9.31C706,35.89,718.11,44,726,56.71c8.13,13.08,12.72,27.19,10.08,43.44H622.25l8.35-15H510.92c-2.15,4.61-4.5,9.65-7,15H405.06c9.8-27,19.48-53.59,29.33-80.67h5.92q55.5,0,111,.06,50.7,0,101.41-.25h.82m0-17h-.92c-29.45.17-60.7.25-101.31.25q-27.75,0-55.49,0l-55.52,0H422.48l-4.07,11.19-4,11L389.09,94.28l-8.29,22.81h134l4.58-9.81,1.09-2.33,1.31-2.81h79.94l-8.36,15H750.58l2.32-14.28c3.05-18.75-1-36.79-12.42-55.14C730.61,31.85,716,22,701.7,13.81c-13.74-7.9-29-11.58-48.15-11.58Z"/><path class="cls-1" d="M1670.26,309.19H1551l68.66-198.7h140.76L1693.25,297c1.4,1.58,2.87,3.17,4.39,4.82,5.4,5.83,11,11.87,15.16,19.51l3.15,5.75-12,11.31Z"/><path d="M1748.28,119c-21.67,60.22-43.12,119.82-64.69,179.78,7,8.76,16.13,16.4,21.75,26.67l-1.61,1.52-30.3-26.27H1562.88c21.06-60.95,41.9-121.25,62.78-181.7h122.62m24.18-17H1613.55l-4,11.44L1574,216.59l-27.14,78.55L1539,317.69h128.06l22,19.06,3.52,3.06,11.62,10.07,11.19-10.56.8-.76.81-.76,9.55-9-6.3-11.52c-4.69-8.55-10.9-15.27-16.38-21.19l-.9-1,61.29-170.36,8.19-22.75Z"/><path class="cls-1" d="M1449.41,309.41H1329.17l73.77-199H1534.3L1468,295a.86.86,0,0,0,.13.14c5.35,5.49,10.88,11.16,14.58,18.81l2.67,5.53-11.37,11Z"/><path d="M1522.21,118.93c-21.44,59.7-42.68,118.82-64,178.12,6.16,6.59,13,12.5,16.85,20.56l-1.41,1.37-21.12-18.07H1341.39c22.6-61,45-121.38,67.46-182h113.36m24.17-17H1397L1392.91,113,1349.14,231.1,1325.45,295l-8.5,22.91h129.32l7.5,6.42,8.84,7.57L1474.38,342l11.12-10.79.71-.68.71-.69,8.81-8.55-5.35-11.05c-3.4-7-8-12.53-12.58-17.34L1530.54,146l7.67-21.36,8.17-22.74Z"/><polygon class="cls-1" points="1910.32 108.73 1865.96 11.17 2006.92 11.17 2034.76 60.41 2081.71 11.11 2232.24 11.11 2133.87 108.73 1910.32 108.73"/><path d="M2211.61,19.61l-81.25,80.62H1915.79l-36.62-80.56H2002c10.07,17.83,20.16,35.67,31,54.91l52.35-55h126.26m41.26-17h-174.8l-5,5.27-9.92,10.43-26.61,27.93-.85-1.52L2016.77,11.3l-4.89-8.63H1852.76l10.93,24L1875,51.56l25.32,55.7,4.53,10h232.53l5-4.93,39.46-39.17,41.78-41.46,29.29-29.06Z"/><path class="cls-1" d="M86.81,108.64l7.71-12.87c.24-.41.44-.79.63-1.13a16.4,16.4,0,0,1,2.66-3.9c17.48-18.4,35-32.58,53.47-43.35a276.57,276.57,0,0,1,92.44-33.27,226.19,226.19,0,0,1,36.4-3.07c16.19-.13,33.94-.2,55.84-.2q17,0,34.09,0l34.07,0h18.2l-6,17.09c-3.49,9.9-6.8,19.32-10.15,28.73A12.7,12.7,0,0,1,403,61.51C389.87,74.73,376.68,87.93,363.67,101L356,108.64Z"/><path d="M336,19.35c22.71,0,45.42.07,68.13.07h6.2c-4.24,12-8.18,23.26-12.17,34.48A4.67,4.67,0,0,1,397,55.51c-14.93,15-29.87,29.94-44.55,44.63H101.81A21.69,21.69,0,0,1,104,96.6C119.35,80.41,136.19,66,155.56,54.74a266.79,266.79,0,0,1,89.61-32.25,218.35,218.35,0,0,1,35-2.94q27.9-.23,55.8-.2m0-17c-21.94,0-39.71.07-55.94.2a235.1,235.1,0,0,0-37.77,3.19A285.08,285.08,0,0,0,147,40C127.8,51.22,109.7,65.89,91.64,84.89a25.26,25.26,0,0,0-4,5.73c-.17.32-.32.59-.44.79L71.81,117.14H359.52l5-5,5.61-5.61C383,93.66,396,80.59,409.06,67.51a21.2,21.2,0,0,0,5.11-7.93c3.3-9.28,6.55-18.52,10-28.3l2.19-6.22,8-22.64H404.12l-34,0q-17,0-34.09,0Z"/><polygon class="cls-1" points="815.42 108.6 887.61 11.14 1048.15 11.14 1063.26 108.6 815.42 108.6"/><path d="M1040.87,19.64c4.15,26.76,8.29,53.46,12.47,80.46h-221l59.6-80.46h149m14.57-17H883.33l-5.1,6.88L839.31,62.06,818.63,90,798.54,117.1h274.64l-3-19.6-5.79-37.4L1057.67,17l-2.23-14.4Z"/><path class="cls-1" d="M1237.49,108.57l70.31-97.4h132.67l-4.37,11.51c-1.7,4.48-3.28,9.11-4.82,13.59-3.58,10.47-7.28,21.29-12.81,31.23s-12.75,18.8-19.69,27.28c-3,3.6-5.72,7-8.36,10.45l-2.55,3.34Z"/><path d="M1428.15,19.67c-5.69,15-9.67,30.32-17.11,43.7s-18.37,24.9-27.37,36.7H1254.11l58-80.4h116m24.64-17H1303.45l-5.09,7.05-4.82,6.68-53.21,73.72-19.45,26.95h171.2l5.1-6.69c2.55-3.33,5.28-6.67,8.17-10.21,7.18-8.78,14.61-17.85,20.55-28.54s9.72-21.79,13.43-32.61c1.51-4.41,3.07-9,4.72-13.32l8.74-23Z"/><polygon class="cls-1" points="1403.66 108.53 1439.79 11.06 1570.01 11.06 1535.05 108.53 1403.66 108.53"/><path d="M1557.93,19.56c-9.71,27.06-19.25,53.67-28.86,80.47H1415.88l29.82-80.47h112.23m24.16-17H1433.87l-4.11,11.1-16.83,45.4-13,35.06L1391.45,117H1541l4-11.26,19.5-54.38,9.36-26.09,8.16-22.74Z"/><polygon class="cls-1" points="1065.67 108.4 1050.47 11.14 1176.86 11.14 1188.36 108.4 1065.67 108.4"/><path d="M1169.31,19.64c3.14,26.56,6.28,53.17,9.48,80.26H1072.94c-4.16-26.65-8.33-53.31-12.54-80.26h108.91m15.11-17H1040.54l3.07,19.62,8.74,56,3.8,24.28,2.24,14.37h139.53l-2.24-19-6.35-53.68-3.14-26.59-1.77-15Z"/><path d="M464.39,521.64c-5-7.35-15.19-11.3-23.26-6.1a19.18,19.18,0,0,0-6.76,7.8q-4.94-.08-9.87-.23c-8.89-.25-17.4,8-17,17,.43,9.43,7.47,16.73,17,17,10.14.29,21.94,1.86,31.11-3.42C466.41,547.48,471.77,532.55,464.39,521.64Z"/><path d="M1186.2,709.41H1046.28l85.53-237.29h396.07l-19.56,36.75c-1.49,2.8-3,5.68-4.38,8.46-3.36,6.59-6.84,13.4-11.06,20.11-10.71,17-21.56,29.37-34.12,38.76a95.18,95.18,0,0,1-37.23,16.5l86.63,86.74-18.33,30H1322.54l-74.9-75-16.05,40.68,27.29,34-17.2,16.83-16,15.63Z"/><path d="M1310.72,733h194l13.73-22.46.78-1.28,20.52-33.57L1512,647.86l-46.16-46.21c2.66-1.66,5.31-3.46,7.93-5.43,15.1-11.29,27.91-25.74,40.32-45.48,4.81-7.65,8.54-15,12.16-22,1.43-2.81,2.79-5.46,4.18-8.07l39.12-73.5H1114.25l-11.91,33.05L1042.59,645.9l-7.76,21.55-24.14,67h166.62l10.25,8.32,5.07,4.13L1227.25,775l31.9-31.21.34-.33.67-.65L1290.7,713l6.82,6.83Zm-65-135.89h-10.24L1203,679.43l22.18,27.64-1,1-29.1-23.66H1081.86q33.75-93.61,67.51-187.29h336.88c-5.07,9.53-9.25,18.62-14.53,27-7.6,12.08-16.36,23.39-27.93,32-14.57,10.9-31.57,13.81-49.24,14.78-8.73.47-17.4,1.95-27,3.07l109,109.16c-.26.42-.52.84-.77,1.27H1332.9Z"/><path d="M2100.57,712c-1.26,0-2.33-.05-3.46-.11l-1.89-.1-53-2.33,123.65-137h10.54a79.38,79.38,0,0,1-15.63-31.67,31.56,31.56,0,0,1-.78-7.43v-61.4h137.8c30.85,0,71.6,0,113.18.06,15.57,0,28.05,6,38.09,10.84l2.13,1c28.4,13.53,47.73,35.37,57.48,64.93,5.09,15.44,3.34,29.9,1.93,41.52l-.09.79c-3.74,30.85-18.88,55.26-29.95,70.94-11.84,16.77-27.89,25.33-42.05,32.88l-.38.2c-17.13,9.14-35.14,13.33-48.9,16a57.1,57.1,0,0,1-10.66.91l-166.75,0Z"/><path d="M2532.42,540.9c-11.8-35.78-36.16-63.33-70.46-79.67l-2.07-1c-11-5.28-27.64-13.27-48.87-13.3-41.55-.06-82.26-.06-113.1-.06H2135v86.37a57.55,57.55,0,0,0,1.41,13.07,98.13,98.13,0,0,0,5.07,15.76l-1.62,1.8-16.16,17.9-64.5,71.48L1988.14,732l22.1,1h395.93c13.26-3.09,28.57-7.79,43.73-15.88l.38-.2c15-8,35.45-18.9,50.71-40.52,12.63-17.9,29.94-45.9,34.34-82.35l.1-.79C2537.05,579.92,2539.26,561.64,2532.42,540.9ZM2485.7,588c-2.71,22.35-12.84,41.52-25.55,59.52-8.5,12-21.15,18.71-33.77,25.44-13.18,7-27.35,10.7-41.84,13.47a32.14,32.14,0,0,1-6,.47L2210,687H2100.58c-1,0-2-.08-4.26-.18L2177,597.39H2366.4l-15.6-15.07,1-1.4H2242.91c-25.61,0-52.07-21-57.77-45.79a9.29,9.29,0,0,1-.14-2V496.89h112.92q56.52,0,113,.06c10.72,0,20.06,4.93,29.5,9.43,22,10.47,36.86,27.08,44.49,50.19C2488.37,567,2487,577.5,2485.7,588Z"/><path d="M2038,711.69c-53.94-.08-107.82-.09-148.74-.09H1701.39L1828,571.72h9.8a89.38,89.38,0,0,1-7.32-11.51c-4.25-7.92-6.71-17.43-7.52-29.05-.59-8.46-.47-16.68-.36-24.63,0-3.17.1-6.44.1-9.64v-25h30.75q24.42,0,48.83,0t48.89,0c40.39,0,71.23.12,100,.39,14.24.14,27.47,4.37,38.75,8.33,32,11.24,56.68,33.84,71.24,65.35,6.48,14,6.2,27.62,6,38.53-.07,3.42-.14,6.66,0,9.48,1.23,22.47-12.17,36.54-20.18,45q-8,8.37-15.91,16.78c-11.22,11.86-22.83,24.12-34.47,36.07a55.09,55.09,0,0,1-21.42,13.5,114.48,114.48,0,0,1-37,6.5Z"/><path d="M1720.64,653.06,1648.32,733H2068.8q7.07-1.66,14.32-4.13a80.64,80.64,0,0,0,31.33-19.73c11.76-12.08,23.42-24.4,34.69-36.31,5.21-5.51,10.6-11.2,15.88-16.75,9.37-9.83,28.86-30.3,27-63.56-.1-1.88,0-4.66,0-7.6.25-12,.62-30.26-8.28-49.52-17.45-37.8-47.07-64.93-85.66-78.47-14.13-4.95-29.59-9.56-46.78-9.73-28.85-.27-59.76-.39-100.21-.39q-24.47,0-48.93,0t-48.81,0h-55.75v50c0,3-.05,6.06-.09,9.27-.13,8.47-.25,17.23.41,26.73a104.41,104.41,0,0,0,5.66,28.44l-1.67,1.84ZM1839,596.72H2030l-17.68-16.18h-16.51c-17.52,0-35,.25-52.55.25-11.49,0-23-.11-34.44-.47-23.89-.75-44.39-9.69-56.31-31.92-3-5.58-4.16-12.54-4.61-19-.74-10.58-.2-21.26-.2-32.53h5.75q48.87,0,97.74-.08,49.88,0,99.74.39c10.27.1,20.84,3.46,30.7,6.92,26.25,9.2,45.18,27,56.82,52.24,5.71,12.37,3,25.86,3.74,38.89.63,11.59-6.22,18.9-13.32,26.35-16.72,17.56-33.27,35.28-50.19,52.65a30.11,30.11,0,0,1-11.51,7.25,90,90,0,0,1-29,5.19H2038q-74.58-.12-149.16-.09H1757.72Z"/><path d="M366.11,726.05c-4.21-3.49-8.48-6.79-13-10.28-2.53-2-5.1-3.95-7.73-6-101.12-.56-181.17-1-274.43-1H35.48l84.24-235.73H474.28l-95,94.63h80.7l7.58,15.3,8,16-81.13,81.6,22.24,27-16.93,16.88-16.09,16Z"/><path d="M489.22,570.47,475.43,542.7H439.78l9.24-9.2,85.81-85.43H102.11L90.25,481.24,63.69,555.56,23.88,667,0,733.8H71c50.54,0,97.21.11,145.46.31H340.53v3.53c3.35,2.6,6.56,5.12,9.64,7.67l35,29,32.18-32.07.4-.39.41-.41,32.23-32.11-22.32-27.08,16.85-17,35.69-35.89L505.85,604l-15.93-32.09ZM360.68,679.08,382.86,706l-.81.8c-9.14-7.57-18.29-14.14-27.77-22-107.62-.6-188.19-1-283.32-1,22.22-62.18,44.27-123.88,66.38-185.73h276.4l-77.13,76.79H232.82L215.08,592.7H444.43c.23.48.47.95.71,1.43Q403,636.48,360.68,679.08Z"/><polygon points="1494.53 710.78 1431.67 647.99 1494.45 472.12 1850.42 472.12 1750.86 571.56 1828.66 571.56 1841.97 603.22 1739.99 710.78 1494.53 710.78"/><path d="M1458.34,710l11.2,11.19L1481.4,733h272l12.15-12.82,31.67-33.4,51.68-54.51,22.47-23.7-12.66-30.1-.28-.64-.27-.66-12.88-30.61h-34l14.09-14.07,85.48-85.37h-434L1465,480.31l-51.54,144.37L1402.8,654.5l22.4,22.37Zm53.73-212.85H1790l-83.76,83.66h-97.67l-17.71,15.78h221.18c.18.44.37.87.55,1.31l-83.35,87.91H1504.87l-44.34-44.29C1477.61,593.66,1494.85,545.37,1512.07,497.12Z"/><path d="M495.36,711.44H331.19l33.89-40.94a60.72,60.72,0,0,1,8.45-8.11l1.36-1.14,16-16.7c20-20.94,40.72-42.6,61.29-63.76,5.52-5.67,11.18-11,16.65-16.15s10.5-9.88,15.31-14.85c7.8-8,15.2-16.43,22.86-25.23l-23.5-52.35H792l-77.51,75.9L731,568.65,717.76,584l42.31,124.63h-181l-13.33-43.11L546.13,686.1l25.7,28.64-34.1,35.13Z"/><path d="M746,589.47l17.4-20.28-15.25-19.05,17.57-17.21,87.54-85.72H444.85l31.63,70.47,1.09,2.43c-3.79,4.23-7.57,8.32-11.41,12.28-4.41,4.56-9.31,9.17-14.5,14.05-5.67,5.34-11.53,10.85-17.43,16.92-20.67,21.26-41.42,43-61.49,64q-7.49,7.84-15,15.67l-.16.13a85.13,85.13,0,0,0-11.78,11.44L280,734.11h60.56v2.33H485.71L503,752.16l35.83,32.48,33.66-34.72,1-1.06,14.75-15.22H795l-22.42-66.07Zm-47.54-21.38-.63.74L683.7,557.7l-1,.67c14.1,41.54,28.2,83.07,42.52,125.27H597.49c-6.8-22-13.56-43.85-20.47-66.22l-64.93,68.17,25.55,28.48-1,1L505,686.44H384.34c2.46-3,6.28-5.47,8.41-7.69,25.73-26.89,51.38-53.85,77.33-80.53,10.35-10.65,21.65-20.37,32-31,10-10.34,19.47-21.27,28.93-32.15,2-2.29,3-5.48,4.38-8.26-4.37-9.74-8.68-19.33-13.27-29.57H730.75l-49.89,48.86Z"/><path d="M831.06,709.4H737.79l-6.89-13.88c-1.18-2.38-2.39-4.79-3.6-7.21-3.83-7.65-7.79-15.56-11.57-23.72-5.15-11.1-1.42-21.59-.19-25,10.81-30.4,22-61.6,34.14-95.37,4.61-12.8,9.35-25.79,13.93-38.36q3.15-8.61,6.3-17.25l6-16.45h381.29l-4.32,28.72a92.41,92.41,0,0,1-17.62,42c-25.81,34.47-61.71,52.28-106.69,52.94-32.36.48-65.19.65-96.95.81l-5.68,0-8.74,9-15.71,16.09-5.16-4.07-21,57.83,27,31.29-18.91,18.08-16.52,15.8Z"/><path d="M1128.15,497.13a66.94,66.94,0,0,1-12.91,30.77c-21.76,29.06-51.39,42.41-87,42.94-43.27.63-86.54.71-129.81,1h-.28c-3.29,0-6.62-.36-11.18-.62,4.69,6,8.81,11.21,12.92,16.44l-.54.56-14.69-11.58c-12.66,34.93-25.17,69.46-37.74,104.13l21,24.38-1.76,1.69L840.44,684.4H753.29c-4.87-9.81-10.08-20-14.88-30.33-.75-1.61,0-4.21.68-6.14q17-47.67,34.11-95.27c6.66-18.49,13.43-36.94,20.2-55.53h334.75m58.09-50H758.39l-12,32.9q-3.15,8.63-6.29,17.24c-4.6,12.58-9.35,25.6-14,38.45C714,569.41,702.85,600.64,692,631.18c-6.93,19.47-3.24,34.64,1.07,43.93,3.94,8.49,8,16.57,11.89,24.39l3.57,7.13,13.78,27.77h99.39l11.55,10.08,34.42,30.06,33-31.57,1.77-1.69,34.32-32.82-31-36-1.91-2.22,8.7-24,22.58-23.2.39-.4.17-.18.87-.89c30.31-.16,61.53-.34,92.36-.79,52.39-.77,96.08-22.54,126.34-63a117.09,117.09,0,0,0,22.33-53.3l8.65-57.44Z"/><path d="M2466.32,504.85H2167L2163.5,484c-2.82-16.79,2.54-30.41,6.45-40.36l.42-1.05c11.55-29.45,33.2-51.71,62.6-64.37,7.5-3.22,19.11-7.08,31.88-7.12,56.49-.22,112.26-.25,159.35-.25h140.73v63.67l-45,44.65,23.4,29.05-16.78,16.88-16.05,16.14Z"/><path d="M2424.22,395.83l111.68,0h4v28.26l-53.61,53.19,23.5,29.17-1,1-33.54-27.62H2188.15c-1.74-10.38,2-19.29,5.49-28.15,9.3-23.71,26-40.54,49.22-50.53,6.85-2.95,14.69-5.07,22.08-5.09q79.64-.31,159.28-.25m0-50c-47.15,0-103,0-159.46.25-17,.06-32,5-41.67,9.16-35.67,15.35-62,42.39-76,78.2l-.4,1c-4.42,11.23-11.81,30-7.85,53.65l7,41.73h311.5l5.63,4.64L2477,546.06l35.16,29,32.11-32.31,1-1L2576.85,510,2553.54,481l13.76-13.65,7.85-7.79,14.78-14.66V345.85H2424.22Z"/><path d="M1483.33,504.63l11.53-33.2c.89-2.56,1.75-5.07,2.61-7.54,1.89-5.48,3.67-10.65,5.55-15.93q3-8.46,6.07-16.91c4.25-11.8,8.65-24,12.73-36,4.82-14.17,16.17-22.29,31.14-22.29h.11c26.38.06,52.16.07,73.9.07h142.29q39.85,0,79.71,0c8.25,0,16.52.18,24.51.34,3,.06,5.91.13,8.87.18a37.37,37.37,0,0,1,5.42.53c.4.06.89.14,1.52.22l64.83,8.71L1900,419.61c-25,16.95-38.64,37.31-43,64.05l-3.42,21Z"/><path d="M1553,397.79h0q36.84.09,73.67.07h142.47q39.9,0,79.8,0c11,0,22,.32,33,.52.92,0,1.84.23,4,.53-29.49,20-48,46.18-53.63,80.7H1518.48c2.81-8.1,5.4-15.71,8.09-23.29,6.32-17.73,12.84-35.39,18.91-53.2,1.39-4.09,3.41-5.35,7.48-5.35m.11-50H1553c-25.56,0-46.57,15-54.81,39.23-4,11.76-8.37,23.86-12.58,35.55-2,5.56-4.07,11.3-6.1,17-1.93,5.41-3.73,10.65-5.64,16.19l-2.59,7.47-23,66.4h426.63l6.85-41.94c3.23-19.77,13.21-34.39,32.37-47.4l108.24-73.49-129.66-17.43c-.43-.05-.76-.11-1-.15a62.68,62.68,0,0,0-8.8-.82l-8.81-.17c-8.11-.17-16.49-.34-25-.35-23.16,0-47.79,0-79.84,0H1626.68c-21.63,0-47.28,0-73.55-.07Z"/><polygon points="448.55 503.81 108.7 503.81 155.84 371.93 465.1 371.93 514.76 463.31 497.9 478.96 510.69 496.05 478.48 526.66 448.55 503.81"/><path d="M450.23,396.93l33.3,61.26L464.4,475.94l13,17.3-.66.62L457,478.81H144.19l29.26-81.88H450.23m29.73-50H138.22L126.37,380.1,103.1,445.2,97.1,462,73.22,528.81H440.09l6.27,4.79,33.88,25.87,30.9-29.36.34-.32.31-.3L544,498.86,531.39,482,546,468.43l-18.54-34.11-24.47-45-8.83-16.24L480,346.93Z"/><path d="M1814.88,504.63l13.55-34.21c1.21-3.07,2.4-6.21,3.55-9.25,2.68-7.1,5.46-14.44,8.9-21.74A122.43,122.43,0,0,1,1878.41,393a95.36,95.36,0,0,1,58.23-19.57H1958c16.58,0,29.32,0,41.3.06q13,0,26.08.17c10.74.08,21.86.17,32.74.18h1.17c8.08,0,16.35-.07,24.34-.14s16.49-.15,24.79-.15h.58c9.93,0,20,.09,29.71.17,8.15.06,16.58.13,24.84.15h2.93c6.47,0,13.09-.05,19.49-.1,4.36,0,8.72-.07,13.08-.09h.16c1.94,0,3.55.16,4.72.27l.91.09,23.07,1.78V415l-7.3,7.32c-8.33,8.35-14.66,19-19.33,32.46a34.29,34.29,0,0,1-7.75,12.67c-7.84,8-15.7,16-23.31,23.73l-13.29,13.5Z"/><path d="M1957.92,398.38q20.64,0,41.27.06c19.63.07,39.26.33,58.89.35h1.19c16.39,0,32.77-.29,49.16-.29h.54c18.16,0,36.33.27,54.5.32h3c10.9,0,21.79-.14,32.69-.19h.05c1.11,0,2.23.17,3.7.28v5.7c-11.84,11.87-19.79,26.15-25.26,41.93a9.09,9.09,0,0,1-2,3.39c-9.86,10.11-19.79,20.16-29.18,29.7H1851.67c4.09-10.34,7.42-20.19,11.82-29.54a97.76,97.76,0,0,1,29.9-37.13,70.8,70.8,0,0,1,43.27-14.58h21.26m0-50h-21.29a121.55,121.55,0,0,0-73.2,24.55,147.38,147.38,0,0,0-45.17,55.85c-3.86,8.19-6.81,16-9.67,23.56-1.16,3.08-2.27,6-3.41,8.89l-27.08,68.4h389.28l14.69-14.92,6-6.11c7.6-7.71,15.46-15.69,23.32-23.75a59.31,59.31,0,0,0,13.46-21.92c3.42-9.86,7.81-17.38,13.42-23l14.6-14.64V352.63l-46.15-3.57-.42,0a68.61,68.61,0,0,0-7.13-.39h-.28l-13.15.09c-6.36,0-12.94.1-19.31.1h-2.85c-8.2,0-16.6-.09-24.73-.15-9.76-.08-19.86-.16-29.88-.17h-.56c-8.41,0-16.85.08-25,.15-7.95.07-16.17.14-24.14.14h-1.15c-10.81,0-21.88-.1-32.59-.18-8.56-.07-17.41-.14-26.16-.17-12.09,0-24.87-.06-41.45-.06Z"/><path d="M763.11,504.69l50.37-132.84,151.09,0q55.95,0,111.89-.05c14.44,0,30.42,5,43.9,13.78,16,10.36,27.12,25.11,31.45,41.54,3.86,14.6,4.17,28.25,4.16,41v36.48H969.79l8.16-14.5H917l-6.61,14.6Z"/><path d="M1076.52,396.82c18.49,0,45.07,13.77,51.12,36.7,3,11.54,3.34,23,3.33,34.58v11.49H1012.53l8.15-14.5H900.92l-6.61,14.6h-95l31.41-82.84h5.84l128,0q55.95,0,111.9-.05h0m0-50h-.09c-32.62,0-67.12.05-111.85.05H796.22L784,379.13,752.58,462,726.9,529.69H926.55l6.62-14.6h2l-8.16,14.5H1181V468.12c0-13.73-.36-29.86-5-47.36-5.93-22.44-20.84-42.37-42-56.12-17.69-11.49-38.09-17.82-57.45-17.82Z"/><path d="M1120.17,504.63l47.75-132.78h131.43c41.09,0,72.62,0,102.24.06,16.31,0,32.18,4.58,48.52,13.92,16.15,9.24,30.24,21.5,43.08,37.49,14.17,17.65,20.38,37.33,18.45,58.5l-2.08,22.73H1325.7l9.12-16.39h-61.1l-7.51,16.48Z"/><path d="M1299.29,396.84q51.14,0,102.27.06c13,0,24.89,4.19,36.13,10.62,14.13,8.09,25.88,18.84,36,31.44,9.43,11.75,14.48,25,13,40.58H1368.23l9.11-16.39H1257.63l-7.5,16.48h-94.4c9.94-27.66,19.78-55,29.76-82.78h113.8m0-50h-149l-11.9,33.08-9.53,26.51-20.23,56.27-24.07,66.92h197.68l7.51-16.48h2.5l-9.12,16.39h249.21l4.14-45.46c2.51-27.45-5.74-53.88-23.85-76.43-14.63-18.21-31.51-32.86-50.16-43.53-19.93-11.39-40.41-17.19-60.89-17.22-29.64,0-61.2-.06-102.34-.06Z"/><path d="M498.07,504.77l-61-133.28H631.05l16.42,37L685.79,372h162.7l-13.92,34.38c-1,2.36-1.89,4.49-2.8,6.55a66,66,0,0,0-3.39,8.59c-5.06,19-16.72,31.83-28.57,42.82-7.89,7.32-15.71,14.78-24,22.67l-11.42,10.87-7.24,6.86Z"/><path d="M614.79,396.49,639,451.06l56.79-54H811.4c-2.56,6.31-5.57,12-7.19,18.1-3.45,13-12,22.16-21.4,30.92-11.59,10.74-23,21.71-35.62,33.72H514.13c-12.67-27.7-25.22-55.13-38.09-83.28H614.79m32.52-50H398.18l32.39,70.8,13.18,28.82,24.91,54.45L482,529.77h285.1l14.47-13.72,11.46-10.9c8.22-7.84,16-15.24,23.76-22.45,13.88-12.87,29-29.42,35.68-54.56.31-.93,1.37-3.32,2.15-5.08.94-2.14,2-4.55,3.1-7.27L885.58,347H675.8l-14.48,13.78-5.38,5.12-8.63-19.44Z"/><path class="cls-1" d="M1350.55,548l109,109.16-.77,1.27H1315.9l-87.18-87.35h-10.24L1186,653.43l22.18,27.64-1,1-29.1-23.66H1064.86q33.75-93.61,67.51-187.29h336.88c-5.07,9.53-9.25,18.62-14.53,27-7.6,12.08-16.36,23.39-27.93,32-14.57,10.9-31.57,13.81-49.24,14.78C1368.82,545.43,1360.15,546.91,1350.55,548Z"/><path class="cls-1" d="M2160,571.39H2349.4l-15.6-15.07,1-1.4h-5.42q-51.75,0-103.5,0c-25.61,0-52.07-21-57.77-45.79a9.29,9.29,0,0,1-.14-2V470.89h5.45q110.25,0,220.5.05c10.72,0,20.06,4.93,29.5,9.43,22,10.47,36.86,27.08,44.49,50.19,3.43,10.41,2,20.94.76,31.48-2.71,22.35-12.84,41.52-25.55,59.52-8.5,12-21.15,18.71-33.77,25.44-13.18,7-27.35,10.7-41.84,13.47a32.14,32.14,0,0,1-6,.47q-139,0-278,0c-1,0-2-.08-4.26-.18Z"/><path class="cls-1" d="M1822,570.72H2013l-17.68-16.18h-16.51c-29,0-58,.69-87-.22-23.89-.75-44.39-9.69-56.31-31.92-3-5.58-4.16-12.54-4.61-19-.74-10.58-.2-21.26-.2-32.53h5.75c65.83,0,131.66-.31,197.48.31,10.27.1,20.84,3.46,30.7,6.92,26.25,9.2,45.18,27,56.82,52.24,5.71,12.37,3,25.86,3.74,38.89.63,11.59-6.22,18.9-13.32,26.35-16.72,17.56-33.27,35.28-50.19,52.65a30.11,30.11,0,0,1-11.51,7.25,90.1,90.1,0,0,1-29.12,5.19q-136.49-.21-273-.08h-7.31Z"/><path class="cls-1" d="M365.05,680.79l-27.77-23H54c22.22-62.18,44.27-123.88,66.38-185.73h276.4l-77.13,76.79H215.82L198.08,566.7H427.43l.71,1.43q-42.12,42.35-84.46,85L365.86,680Z"/><path class="cls-1" d="M1487.87,659.78l-44.34-44.29c17.08-47.83,34.32-96.12,51.54-144.37H1773l-83.76,83.66h-97.67l-17.71,15.78h221.18l.55,1.31-83.35,87.91Z"/><path class="cls-1" d="M708.18,657.64H580.49c-6.8-22-13.56-43.85-20.47-66.22l-64.93,68.17,25.55,28.48-1,1L488,660.44H369.34c2.46-3,4.28-5.47,6.41-7.69,25.73-26.89,51.38-53.85,77.33-80.53,10.35-10.65,21.65-20.37,32-31,10-10.34,19.47-21.27,28.93-32.15,2-2.29,3-5.48,4.38-8.26-4.37-9.74-8.68-19.33-13.27-29.57H713.75l-49.89,48.86,17.62,22-.64.74L666.7,531.7l-1,.67C679.76,573.91,693.86,615.44,708.18,657.64Z"/><path class="cls-1" d="M1111.15,471.13a66.94,66.94,0,0,1-12.91,30.77c-21.76,29.06-51.39,42.41-87,42.94-43.27.63-86.54.71-129.81,1-3.38,0-6.77-.35-11.46-.62,4.69,6,8.81,11.21,12.92,16.44l-.54.56-14.69-11.58c-12.66,34.93-25.17,69.46-37.74,104.13l21,24.38-1.76,1.69L823.44,658.4H736.29c-4.87-9.81-10.08-20-14.88-30.33-.75-1.61,0-4.21.68-6.14q17-47.67,34.11-95.27c6.66-18.49,13.43-36.94,20.2-55.53Z"/><path class="cls-1" d="M2522.93,369.85v28.26l-53.61,53.19,23.5,29.17-1,1-33.54-27.62H2171.15c-1.74-10.38,2-19.29,5.49-28.15,9.3-23.71,26-40.54,49.22-50.53,6.85-2.95,14.69-5.07,22.08-5.09,90.32-.35,180.64-.23,271-.23Z"/><path class="cls-1" d="M1501.48,453.63c2.81-8.1,5.4-15.71,8.09-23.29,6.32-17.73,12.84-35.39,18.91-53.2,1.4-4.11,3.43-5.36,7.53-5.35q65,.15,130,.06,83,0,166,0c11,0,22,.32,33,.52.92,0,1.84.23,4,.53-29.49,20-48,46.18-53.63,80.7Z"/><path class="cls-1" d="M127.19,452.81l29.26-81.88H433.23l33.3,61.26L447.4,449.94l13,17.3-.66.62L440,452.81Z"/><path class="cls-1" d="M2185.89,372.91v5.7c-11.84,11.87-19.79,26.15-25.26,41.93a9.09,9.09,0,0,1-2,3.39c-9.86,10.11-19.79,20.16-29.18,29.7H1834.67c4.09-10.34,7.42-20.19,11.82-29.54a97.76,97.76,0,0,1,29.9-37.13,70.8,70.8,0,0,1,43.27-14.58q31.26,0,62.53.06c19.63.07,39.26.33,58.89.35,17,0,33.92-.29,50.89-.29,18.16,0,36.33.27,54.5.32,11.89,0,23.78-.13,35.67-.19C2183.27,372.63,2184.4,372.8,2185.89,372.91Z"/><path class="cls-1" d="M1114,453.59H995.53l8.15-14.5H883.92l-6.61,14.6h-95l31.41-82.84h5.84q120,0,239.91,0c18.48,0,45.09,13.75,51.15,36.7,3,11.54,3.34,23,3.33,34.58Z"/><path class="cls-1" d="M1240.63,437.15l-7.5,16.48h-94.4c9.94-27.66,19.78-55,29.76-82.78h6.1q105,0,210,0c13,0,24.89,4.19,36.13,10.62,14.13,8.09,25.88,18.84,36,31.44,9.43,11.75,14.48,25,13,40.58H1351.23l9.11-16.39Z"/><path class="cls-1" d="M497.13,453.77c-12.67-27.7-25.22-55.13-38.09-83.28H597.79L622,425.06l56.79-54H794.4c-2.56,6.31-5.57,12-7.19,18.1-3.45,13-12,22.16-21.4,30.92-11.59,10.74-23,21.71-35.62,33.72Z"/><rect x="340.39" y="692.69" width="82.89" height="77.06" transform="translate(628.89 -55.83) rotate(45)"/></g></g></svg>