<?xml version="1.0" encoding="iso-8859-1"?>
<!-- Generator: Adobe Illustrator 18.0.0, SVG Export Plug-In . SVG Version: 6.00 Build 0)  -->
<!DOCTYPE svg PUBLIC "-//W3C//DTD SVG 1.1//EN" "http://www.w3.org/Graphics/SVG/1.1/DTD/svg11.dtd">
<svg version="1.1" id="Capa_1" xmlns="http://www.w3.org/2000/svg" xmlns:xlink="http://www.w3.org/1999/xlink" x="0px" y="0px"
	 viewBox="0 0 512 512" style="enable-background:new 0 0 512 512;" xml:space="preserve">
<g>
	<circle cx="256" cy="256" r="32"/>
	<path d="M256,0C114.617,0,0,114.617,0,256s114.617,256,256,256s256-114.617,256-256S397.383,0,256,0z M443.852,167.281
		l-59.492,23.797c-13.867-27.305-36.133-49.57-63.438-63.437l23.797-59.492C388.141,88.746,423.25,123.859,443.852,167.281z
		 M186.93,213.723c5.969-11.352,15.445-20.828,26.797-26.797c75.438-39.684,151.031,35.918,111.344,111.352
		c-5.969,11.348-15.445,20.824-26.797,26.797C222.836,364.758,147.242,289.156,186.93,213.723z M68.148,344.719l59.492-23.797
		c13.867,27.305,36.133,49.57,63.437,63.438l-23.797,59.492C123.859,423.254,88.742,388.141,68.148,344.719z"/>
</g>
<g>
</g>
<g>
</g>
<g>
</g>
<g>
</g>
<g>
</g>
<g>
</g>
<g>
</g>
<g>
</g>
<g>
</g>
<g>
</g>
<g>
</g>
<g>
</g>
<g>
</g>
<g>
</g>
<g>
</g>
</svg>
