<?xml version="1.0" encoding="iso-8859-1"?>
<!-- Generator: Adobe Illustrator 16.0.0, SVG Export Plug-In . SVG Version: 6.00 Build 0)  -->
<!DOCTYPE svg PUBLIC "-//W3C//DTD SVG 1.1//EN" "http://www.w3.org/Graphics/SVG/1.1/DTD/svg11.dtd">
<svg version="1.1" id="Capa_1" xmlns="http://www.w3.org/2000/svg" xmlns:xlink="http://www.w3.org/1999/xlink" x="0px" y="0px"
	 width="377.961px" height="377.961px" viewBox="0 0 377.961 377.961" style="enable-background:new 0 0 377.961 377.961;"
	 xml:space="preserve">
<g>
	<g>
		<path d="M343.084,79.62C282.686-5.489,164.728-25.521,79.62,34.876C-5.49,95.274-25.522,213.231,34.876,298.341
			c60.398,85.108,178.355,105.141,263.466,44.742C383.45,282.686,403.483,164.729,343.084,79.62z M226.221,241.458
			c-28.981,20.566-69.15,13.746-89.719-15.236c-20.566-28.982-13.745-69.15,15.236-89.717
			c28.982-20.567,69.152-13.746,89.718,15.236C262.024,180.723,255.202,220.89,226.221,241.458z M228.989,115.602
			c-5.868-4.293-12.661-6.979-19.706-7.943l14.049-82.725c21.047,3.338,41.243,11.928,58.471,25.411L228.989,115.602z"/>
		<circle cx="188.98" cy="188.98" r="29.666"/>
	</g>
</g>
<g>
</g>
<g>
</g>
<g>
</g>
<g>
</g>
<g>
</g>
<g>
</g>
<g>
</g>
<g>
</g>
<g>
</g>
<g>
</g>
<g>
</g>
<g>
</g>
<g>
</g>
<g>
</g>
<g>
</g>
</svg>
